<svg width="25" height="16" viewBox="0 0 25 16" fill="none" xmlns="http://www.w3.org/2000/svg">
<path fill-rule="evenodd" clip-rule="evenodd" d="M5.79166 1.71694C6.05836 1.64592 6.33249 1.80322 6.40395 2.06827L7.17641 4.93332C8.79177 4.04554 10.6211 3.56781 12.5 3.56781C14.3732 3.56781 16.197 4.04262 17.8088 4.92519L18.579 2.06827C18.6505 1.80322 18.9246 1.64592 19.1913 1.71694C19.458 1.78796 19.6163 2.0604 19.5448 2.32545L18.6975 5.46802C19.2602 5.84933 19.7898 6.28435 20.2782 6.76974C22.3411 8.8199 23.5 11.6005 23.5 14.4999L1.5 14.4999C1.5 11.6005 2.65893 8.8199 4.72183 6.76974C5.20606 6.28849 5.7308 5.85675 6.28807 5.47779L5.43815 2.32545C5.36669 2.0604 5.52496 1.78796 5.79166 1.71694Z" stroke="#FF8033" stroke-width="2"/>
<path d="M7.56595 10.181C7.56595 10.7525 7.09981 11.2157 6.52479 11.2157C5.94978 11.2157 5.48364 10.7525 5.48364 10.181C5.48364 9.60956 5.94978 9.1463 6.52479 9.1463C7.09981 9.1463 7.56595 9.60956 7.56595 10.181Z" stroke="#FF8033"/>
<path d="M18.3848 11.2158C18.9598 11.2158 19.426 10.7525 19.426 10.181C19.426 9.60957 18.9598 9.14631 18.3848 9.14631C17.8098 9.14631 17.3437 9.60957 17.3437 10.181C17.3437 10.7525 17.8098 11.2158 18.3848 11.2158Z" stroke="#FF8033"/>
</svg>
