<svg width="25" height="25" viewBox="0 0 25 25" fill="none" xmlns="http://www.w3.org/2000/svg">
<path d="M6.59305 23.6456H18.4069C21.5183 23.6456 22.7583 21.7405 22.9048 19.4183L23.491 10.1069C23.6488 7.67199 21.7099 5.60906 19.2637 5.60906C18.576 5.60906 17.9448 5.21451 17.6291 4.60577L16.8175 2.97121C16.2989 1.94538 14.9462 1.09991 13.7964 1.09991H11.2149C10.0538 1.09991 8.70108 1.94538 8.18253 2.97121L7.37088 4.60577C7.05524 5.21451 6.42396 5.60906 5.73632 5.60906C3.29011 5.60906 1.35118 7.67199 1.509 10.1069L2.09518 19.4183C2.23046 21.7405 3.48174 23.6456 6.59305 23.6456Z" stroke="#FF8033" stroke-width="2" stroke-linecap="round" stroke-linejoin="round"/>
<path d="M10.8091 7.86365H14.1909" stroke="#FF8033" stroke-linecap="round" stroke-linejoin="round"/>
<path d="M12.5 20C15.2538 20 17.5 17.7538 17.5 15C17.5 12.2462 15.2538 10 12.5 10C9.74615 10 7.5 12.2462 7.5 15C7.5 17.7538 9.74615 20 12.5 20Z" stroke="#FF8033" stroke-width="1.5" stroke-linecap="round" stroke-linejoin="round"/>
</svg>
