<svg width="48" height="49" viewBox="0 0 48 49" fill="none" xmlns="http://www.w3.org/2000/svg">
<path d="M26.456 26.4874H14.5859V27.7519C14.5859 29.0854 17.2442 30.166 20.5222 30.166C23.8003 30.166 26.4586 29.0854 26.4586 27.7519V26.4874H26.456Z" fill="#696969" stroke="white" stroke-miterlimit="10"/>
<path d="M20.5197 28.3268C23.7982 28.3268 26.456 27.4004 26.456 26.2576C26.456 25.1148 23.7982 24.1884 20.5197 24.1884C17.2412 24.1884 14.5834 25.1148 14.5834 26.2576C14.5834 27.4004 17.2412 28.3268 20.5197 28.3268Z" fill="#696969" stroke="white" stroke-miterlimit="10"/>
<path d="M26.456 24.6482H14.5859V25.9127C14.5859 27.2462 17.2442 28.3268 20.5222 28.3268C23.8003 28.3268 26.4586 27.2462 26.4586 25.9127V24.6482H26.456Z" fill="#696969" stroke="white" stroke-miterlimit="10"/>
<path d="M20.5197 26.4875C23.7982 26.4875 26.456 25.5611 26.456 24.4183C26.456 23.2755 23.7982 22.3491 20.5197 22.3491C17.2412 22.3491 14.5834 23.2755 14.5834 24.4183C14.5834 25.5611 17.2412 26.4875 20.5197 26.4875Z" fill="#696969" stroke="white" stroke-miterlimit="10"/>
<path d="M21.8463 22.8088H9.9762V24.0734C9.9762 25.4068 12.6345 26.4874 15.9125 26.4874C19.1905 26.4874 21.8488 25.4068 21.8488 24.0734V22.8088H21.8463Z" fill="#696969" stroke="white" stroke-miterlimit="10"/>
<path d="M15.9099 24.6481C19.1885 24.6481 21.8463 23.7217 21.8463 22.5789C21.8463 21.4361 19.1885 20.5097 15.9099 20.5097C12.6314 20.5097 9.97363 21.4361 9.97363 22.5789C9.97363 23.7217 12.6314 24.6481 15.9099 24.6481Z" fill="#696969" stroke="white" stroke-miterlimit="10"/>
<path d="M26.456 20.9695H14.5859V22.2341C14.5859 23.5675 17.2442 24.6481 20.5222 24.6481C23.8003 24.6481 26.4586 23.5675 26.4586 22.2341V20.9695H26.456Z" fill="#696969" stroke="white" stroke-miterlimit="10"/>
<path d="M20.5197 22.8089C23.7982 22.8089 26.456 21.8825 26.456 20.7397C26.456 19.5969 23.7982 18.6705 20.5197 18.6705C17.2412 18.6705 14.5834 19.5969 14.5834 20.7397C14.5834 21.8825 17.2412 22.8089 20.5197 22.8089Z" fill="#696969" stroke="white" stroke-miterlimit="10"/>
<path d="M26.456 19.1303H14.5859V20.3948C14.5859 21.7283 17.2442 22.8089 20.5222 22.8089C23.8003 22.8089 26.4586 21.7283 26.4586 20.3948V19.1303H26.456Z" fill="#696969" stroke="white" stroke-miterlimit="10"/>
<path d="M20.5197 20.9696C23.7982 20.9696 26.456 20.0432 26.456 18.9004C26.456 17.7576 23.7982 16.8312 20.5197 16.8312C17.2412 16.8312 14.5834 17.7576 14.5834 18.9004C14.5834 20.0432 17.2412 20.9696 20.5197 20.9696Z" fill="#696969" stroke="white" stroke-miterlimit="10"/>
<path d="M33.8316 28.7866H21.9615V30.0511C21.9615 31.3846 24.6198 32.4651 27.8979 32.4651C31.1759 32.4651 33.8342 31.3846 33.8342 30.0511V28.7866H33.8316Z" fill="#696969" stroke="white" stroke-miterlimit="10"/>
<path d="M27.8953 30.6258C31.1738 30.6258 33.8316 29.6994 33.8316 28.5566C33.8316 27.4138 31.1738 26.4874 27.8953 26.4874C24.6168 26.4874 21.959 27.4138 21.959 28.5566C21.959 29.6994 24.6168 30.6258 27.8953 30.6258Z" fill="#696969" stroke="white" stroke-miterlimit="10"/>
<path d="M36.1364 26.9473H24.2664V28.2118C24.2664 29.5453 26.9246 30.6259 30.2027 30.6259C33.4807 30.6259 36.139 29.5453 36.139 28.2118V26.9473H36.1364Z" fill="#696969" stroke="white" stroke-miterlimit="10"/>
<path d="M30.2001 28.7865C33.4786 28.7865 36.1364 27.8601 36.1364 26.7173C36.1364 25.5745 33.4786 24.6481 30.2001 24.6481C26.9216 24.6481 24.2638 25.5745 24.2638 26.7173C24.2638 27.8601 26.9216 28.7865 30.2001 28.7865Z" fill="#696969" stroke="white" stroke-miterlimit="10"/>
<path d="M23.055 2.64563C10.893 2.64563 1 12.5165 1 24.6456C1 36.7747 10.8956 46.6456 23.055 46.6456C35.2144 46.6456 45.11 36.7747 45.11 24.6456C45.11 12.5165 35.2144 2.64563 23.055 2.64563ZM23.055 7.07526C27.1116 7.07526 30.8506 8.45473 33.8341 10.7641L9.13617 35.4004C6.82106 32.4269 5.43814 28.6972 5.43814 24.6482C5.43814 14.9587 13.3413 7.07782 23.0524 7.07782L23.055 7.07526ZM23.055 42.2186C18.9984 42.2186 15.2594 40.8391 12.2759 38.5297L36.9738 13.8934C39.2889 16.8669 40.6719 20.5966 40.6719 24.6456C40.6719 34.3351 32.7687 42.216 23.0576 42.216L23.055 42.2186Z" fill="#696969" stroke="white" stroke-miterlimit="10"/>
<circle cx="23" cy="24.6456" r="21.25" stroke="white" stroke-width="1.5"/>
</svg>
