<svg xmlns="http://www.w3.org/2000/svg" viewBox="0 0 64 64" id="deliver-items"><g data-name="free gift"><path fill="#4a3f35" stroke="#000" stroke-linecap="round" stroke-linejoin="round" stroke-width="2" d="M51.46,51.55c0,.19,0,.38,0,.57A8.67,8.67,0,0,1,43,60.5a8.67,8.67,0,0,1-8.44-8.38c0-.19,0-.38,0-.57a8.72,8.72,0,0,1,8.46-9A8.72,8.72,0,0,1,51.46,51.55Z"></path><rect width="29" height="33" x="4" y="4" fill="#fa7d09" stroke="#000" stroke-linecap="round" stroke-linejoin="round" stroke-width="2"></rect><polygon fill="#fa7d09" stroke="#000" stroke-linecap="round" stroke-linejoin="round" stroke-width="2" points="60 26 60 37 33 37 33 14 44 14 44 26 60 26"></polygon><path fill="#2f2519" stroke="#000" stroke-linecap="round" stroke-linejoin="round" stroke-width="2" d="M60,37V52H51.44c0-.19,0-.39,0-.58,0-5-3.79-9.07-8.46-9.07s-8.46,4.06-8.46,9.07c0,.19,0,.39,0,.58H24.44c0-.19,0-.39,0-.58,0-5-3.79-9.07-8.46-9.07s-8.46,4.06-8.46,9.07c0,.19,0,.39,0,.58H4V37Z"></path><path fill="#4a3f35" stroke="#000" stroke-linecap="round" stroke-linejoin="round" stroke-width="2" d="M16,42.59a8.72,8.72,0,0,0-8.46,9c0,.19,0,.38,0,.57A8.67,8.67,0,0,0,16,60.5a8.67,8.67,0,0,0,8.44-8.38c0-.19,0-.38,0-.57A8.72,8.72,0,0,0,16,42.59Z"></path><path fill="#2f2519" stroke="#000" stroke-miterlimit="10" stroke-width="2" d="M16 47.31a4.12 4.12 0 0 0-4 4.24 2.44 2.44 0 0 0 0 .27 4.1 4.1 0 0 0 4 4 4.1 4.1 0 0 0 4-4 2.44 2.44 0 0 0 0-.27A4.12 4.12 0 0 0 16 47.31zM43 47.31a4.12 4.12 0 0 0-4 4.24 2.44 2.44 0 0 0 0 .27 4 4 0 0 0 8 0 2.44 2.44 0 0 0 0-.27A4.12 4.12 0 0 0 43 47.31z"></path><rect width="5" height="33" x="17" y="4" fill="#dd2c00" stroke="#000" stroke-miterlimit="10" stroke-width="2"></rect><path fill="#00bcd4" stroke="#000" stroke-linecap="round" stroke-linejoin="round" stroke-width="2" d="M60,21.73V26H44V14h7.58a1.94,1.94,0,0,1,1.29.49l6.39,5.57A2.21,2.21,0,0,1,60,21.73Z"></path></g></svg>