<svg width="105" height="20" viewBox="0 0 105 20" fill="none" xmlns="http://www.w3.org/2000/svg">
<path d="M15.8502 0.14563V2.52063H18.2753V2.59188C14.1527 3.16188 11 6.65313 11 10.8331C11 15.4169 14.8074 19.1456 19.4879 19.1456C24.1683 19.1456 27.9758 15.4169 27.9758 10.8331C27.9758 9.76438 27.7332 8.76688 27.3695 7.86438L25.1626 8.76688C25.4294 9.45563 25.5507 10.1206 25.5507 10.8569C25.5507 14.1581 22.8588 16.7944 19.4879 16.7944C16.117 16.7944 13.4251 14.1581 13.4251 10.8569C13.4251 7.55563 16.117 4.91938 19.4879 4.91938C20.2154 4.91938 20.9187 5.03813 21.622 5.29938L22.4465 3.06688C21.8887 2.87688 21.3067 2.78188 20.7004 2.68688V2.54438H23.1255V0.16938H15.8502V0.14563ZM27.9758 2.90063C27.9758 2.90063 19.1241 9.57438 18.6633 10.0256C18.2026 10.5006 18.2026 11.1894 18.6633 11.6644C19.1241 12.1394 19.8517 12.1394 20.3367 11.6644C20.8217 11.1894 28 2.90063 28 2.90063H27.9758Z" fill="#CCCCCC"/>
<path d="M5.70001 7.76688H9.00001V9.76688H4.00001L5.70001 7.76688Z" fill="#CCCCCC"/>
<path d="M2.00001 12.2344H9.00001V14.2344H0.200012L2.00001 12.2344Z" fill="#CCCCCC"/>
<path d="M37.4375 15.1456V3.72375H39.8594V15.1456H37.4375ZM52.7072 15.1456H49.6291L44.6603 6.505H44.59C44.6108 6.86438 44.6291 7.22636 44.6447 7.59094C44.6603 7.95553 44.6759 8.32011 44.6916 8.68469C44.7072 9.04407 44.7228 9.40605 44.7384 9.77063V15.1456H42.5744V3.72375H45.6291L50.59 12.2784H50.6447C50.6343 11.9243 50.6213 11.5727 50.6056 11.2238C50.59 10.8748 50.5744 10.5258 50.5588 10.1769C50.5483 9.82792 50.5379 9.47896 50.5275 9.13V3.72375H52.7072V15.1456ZM62.5669 3.57532C63.2231 3.57532 63.8273 3.67688 64.3794 3.88C64.9367 4.08313 65.382 4.39042 65.7153 4.80188C66.0486 5.20813 66.2153 5.71855 66.2153 6.33313C66.2153 6.79146 66.1242 7.1925 65.9419 7.53625C65.7648 7.88 65.5226 8.18209 65.2153 8.4425C64.908 8.69771 64.5591 8.92167 64.1684 9.11438C64.5747 9.32792 64.9601 9.57792 65.3247 9.86438C65.6893 10.1456 65.9861 10.4764 66.2153 10.8566C66.4497 11.2368 66.5669 11.6795 66.5669 12.1847C66.5669 12.8201 66.3976 13.3722 66.0591 13.8409C65.7205 14.3045 65.2518 14.6639 64.6528 14.9191C64.0539 15.1743 63.3585 15.3019 62.5669 15.3019C61.7127 15.3019 60.9861 15.1795 60.3872 14.9347C59.7882 14.6899 59.3325 14.3409 59.02 13.8878C58.7075 13.4295 58.5513 12.8826 58.5513 12.2472C58.5513 11.7264 58.6476 11.2732 58.8403 10.8878C59.0382 10.5024 59.3039 10.1717 59.6372 9.89563C59.9705 9.61438 60.3377 9.3748 60.7388 9.17688C60.4002 8.96334 60.0903 8.72115 59.8091 8.45032C59.533 8.17948 59.3117 7.86959 59.145 7.52063C58.9835 7.17167 58.9028 6.77063 58.9028 6.3175C58.9028 5.71334 59.0721 5.20813 59.4106 4.80188C59.7544 4.39563 60.2049 4.09094 60.7622 3.88782C61.3195 3.67948 61.921 3.57532 62.5669 3.57532ZM60.7856 12.1066C60.7856 12.518 60.9315 12.8592 61.2231 13.13C61.52 13.3956 61.9575 13.5284 62.5356 13.5284C63.1346 13.5284 63.5825 13.4008 63.8794 13.1456C64.1763 12.8852 64.3247 12.5441 64.3247 12.1222C64.3247 11.8305 64.2388 11.5753 64.0669 11.3566C63.9002 11.1378 63.6893 10.9425 63.4341 10.7706C63.1789 10.5935 62.921 10.4295 62.6606 10.2784L62.4497 10.1691C62.1164 10.3201 61.8247 10.4894 61.5747 10.6769C61.3299 10.8644 61.1372 11.0753 60.9966 11.3097C60.8559 11.5441 60.7856 11.8097 60.7856 12.1066ZM62.5513 5.34094C62.1554 5.34094 61.8273 5.4425 61.5669 5.64563C61.3065 5.84875 61.1763 6.13521 61.1763 6.505C61.1763 6.76542 61.2388 6.99459 61.3638 7.1925C61.494 7.38521 61.6632 7.55448 61.8716 7.70032C62.0851 7.84615 62.3169 7.98157 62.5669 8.10657C62.8065 7.99198 63.0304 7.86438 63.2388 7.72375C63.4471 7.58313 63.6164 7.41386 63.7466 7.21594C63.8768 7.01803 63.9419 6.78105 63.9419 6.505C63.9419 6.13521 63.8091 5.84875 63.5434 5.64563C63.283 5.4425 62.9523 5.34094 62.5513 5.34094ZM77.2547 15.1456L74.5047 6.18469H74.4344C74.4448 6.39823 74.4604 6.72115 74.4813 7.15344C74.5073 7.58053 74.5307 8.03625 74.5516 8.52063C74.5724 9.005 74.5828 9.4425 74.5828 9.83313V15.1456H72.4188V3.72375H75.7156L78.4188 12.4581H78.4656L81.3328 3.72375H84.6297V15.1456H82.3719V9.73938C82.3719 9.38 82.3771 8.96594 82.3875 8.49719C82.4031 8.02844 82.4214 7.58313 82.4422 7.16125C82.463 6.73417 82.4786 6.41386 82.4891 6.20032H82.4188L79.4734 15.1456H77.2547ZM87.3525 15.1456V3.72375H89.7744V15.1456H87.3525ZM102.622 15.1456H99.5441L94.5753 6.505H94.505C94.5258 6.86438 94.5441 7.22636 94.5597 7.59094C94.5753 7.95553 94.5909 8.32011 94.6066 8.68469C94.6222 9.04407 94.6378 9.40605 94.6534 9.77063V15.1456H92.4894V3.72375H95.5441L100.505 12.2784H100.56C100.549 11.9243 100.536 11.5727 100.521 11.2238C100.505 10.8748 100.489 10.5258 100.474 10.1769C100.463 9.82792 100.453 9.47896 100.443 9.13V3.72375H102.622V15.1456Z" fill="#CCCCCC"/>
</svg>
