<svg width="48" height="49" viewBox="0 0 48 49" fill="none" xmlns="http://www.w3.org/2000/svg">
<path d="M29.103 2.64563H2.86405C1.87928 2.64563 1.08167 3.44325 1.08167 4.42801V20.5118C1.08167 21.4966 1.87928 22.2942 2.86405 22.2942H9.83762V26.8816L14.425 22.2942H29.103C30.0877 22.2942 30.8853 21.4966 30.8853 20.5118V4.42801C30.8853 3.44325 30.0877 2.64563 29.103 2.64563Z" stroke="white" stroke-width="2" stroke-miterlimit="10"/>
<path d="M41.7542 26.9481H24.3425C23.3577 26.9481 22.5601 27.7457 22.5601 28.7304V38.9947C22.5601 39.9795 23.3577 40.7771 24.3425 40.7771H31.0866L34.3149 44.0055V40.7771H41.7519C42.7367 40.7771 43.5343 39.9795 43.5343 38.9947V28.7304C43.5343 27.7457 42.7367 26.9481 41.7519 26.9481H41.7542Z" stroke="white" stroke-width="1.5" stroke-miterlimit="10"/>
<path d="M13.2642 35.733H3.0311C2.04633 35.733 1.24872 36.5306 1.24872 37.5154V43.0474C1.24872 44.0322 2.04633 44.8298 3.0311 44.8298H7.30436L8.23566 46.6456L9.22488 44.8298H13.2642C14.249 44.8298 15.0466 44.0322 15.0466 43.0474V37.5154C15.0466 36.5306 14.249 35.733 13.2642 35.733Z" stroke="white" stroke-miterlimit="10"/>
<path d="M5.27917 41.4901C5.79474 41.4901 6.21269 41.0721 6.21269 40.5566C6.21269 40.041 5.79474 39.623 5.27917 39.623C4.7636 39.623 4.34564 40.041 4.34564 40.5566C4.34564 41.0721 4.7636 41.4901 5.27917 41.4901Z" fill="white"/>
<path d="M8.14879 41.4901C8.66437 41.4901 9.08232 41.0721 9.08232 40.5566C9.08232 40.041 8.66437 39.623 8.14879 39.623C7.63322 39.623 7.21527 40.041 7.21527 40.5566C7.21527 41.0721 7.63322 41.4901 8.14879 41.4901Z" fill="white"/>
<path d="M11.0162 41.4901C11.5318 41.4901 11.9497 41.0721 11.9497 40.5566C11.9497 40.041 11.5318 39.623 11.0162 39.623C10.5007 39.623 10.0827 40.041 10.0827 40.5566C10.0827 41.0721 10.5007 41.4901 11.0162 41.4901Z" fill="white"/>
<path d="M15.3387 8.85556L16.0234 9.60276L16.7614 8.90807C17.2317 8.46531 17.8588 8.19518 18.549 8.19518C19.993 8.19518 21.1628 9.36497 21.1628 10.809C21.1628 12.7278 19.8968 14.3255 18.4152 15.5225C17.6925 16.1063 16.9645 16.5563 16.4147 16.8608C16.2164 16.9706 16.0429 17.0606 15.9032 17.1303C15.7718 17.0702 15.6107 16.993 15.4275 16.8981C14.8958 16.6229 14.191 16.2065 13.4914 15.6416C12.0803 14.502 10.8019 12.8573 10.8019 10.6196C10.8019 9.1756 11.9717 8.0058 13.4157 8.0058C14.1753 8.0058 14.859 8.33218 15.3387 8.85556Z" stroke="white" stroke-width="2"/>
<path d="M30.1753 34.9778C30.8546 34.9778 31.4052 34.4271 31.4052 33.7479C31.4052 33.0687 30.8546 32.5181 30.1753 32.5181C29.4961 32.5181 28.9455 33.0687 28.9455 33.7479C28.9455 34.4271 29.4961 34.9778 30.1753 34.9778Z" fill="white"/>
<path d="M35.3064 32.5248C35.9856 32.5248 36.5362 31.9741 36.5362 31.2949C36.5362 30.6157 35.9856 30.0651 35.3064 30.0651C34.6272 30.0651 34.0765 30.6157 34.0765 31.2949C34.0765 31.9741 34.6272 32.5248 35.3064 32.5248Z" fill="white"/>
<path d="M35.3064 37.4307C35.9856 37.4307 36.5362 36.8801 36.5362 36.2009C36.5362 35.5216 35.9856 34.971 35.3064 34.971C34.6272 34.971 34.0765 35.5216 34.0765 36.2009C34.0765 36.8801 34.6272 37.4307 35.3064 37.4307Z" fill="white"/>
<path d="M35.8942 31.3506L30.8099 33.7657L35.8006 36.1274" stroke="white" stroke-miterlimit="10"/>
</svg>
