
<svg width="286" height="26" viewBox="0 0 286 26" fill="none" xmlns="http://www.w3.org/2000/svg"> <style> path { filter: drop-shadow(0px 1px 3px rgba(34, 34, 34, 0.70)); } </style> <path d="M10.45 20H15.55C19.8 20 21.5 18.3 21.5 14.05V8.95C21.5 4.7 19.8 3 15.55 3H10.45C6.2 3 4.5 4.7 4.5 8.95V14.05C4.5 18.3 6.2 20 10.45 20Z" stroke="white" stroke-width="1.5" stroke-linecap="round" stroke-linejoin="round"/>
<path d="M8 11.2059L11.5556 14.5L18 7.5" stroke="white" stroke-width="2.5"/>
<path d="M40.0312 17H37.7266L32.1328 7.88281H32.0625C32.0833 8.1901 32.1016 8.51562 32.1172 8.85938C32.138 9.20312 32.1536 9.55729 32.1641 9.92188C32.1797 10.2865 32.1927 10.6562 32.2031 11.0312V17H30.5V5.57812H32.7891L38.375 14.6328H38.4297C38.4193 14.3672 38.4062 14.0625 38.3906 13.7188C38.375 13.375 38.3594 13.0208 38.3438 12.6562C38.3333 12.2865 38.3255 11.9297 38.3203 11.5859V5.57812H40.0312V17ZM50.5 12.6562C50.5 13.375 50.4062 14.013 50.2188 14.5703C50.0312 15.1276 49.7578 15.599 49.3984 15.9844C49.0391 16.3646 48.6068 16.6562 48.1016 16.8594C47.5964 17.0573 47.026 17.1562 46.3906 17.1562C45.7969 17.1562 45.2526 17.0573 44.7578 16.8594C44.263 16.6562 43.8333 16.3646 43.4688 15.9844C43.1094 15.599 42.8307 15.1276 42.6328 14.5703C42.4349 14.013 42.3359 13.375 42.3359 12.6562C42.3359 11.7031 42.5 10.8958 42.8281 10.2344C43.1615 9.56771 43.6354 9.0599 44.25 8.71094C44.8646 8.36198 45.5964 8.1875 46.4453 8.1875C47.2422 8.1875 47.9453 8.36198 48.5547 8.71094C49.1641 9.0599 49.6406 9.56771 49.9844 10.2344C50.3281 10.901 50.5 11.7083 50.5 12.6562ZM44.2266 12.6562C44.2266 13.2865 44.3021 13.8255 44.4531 14.2734C44.6094 14.7214 44.849 15.0651 45.1719 15.3047C45.4948 15.5391 45.9115 15.6562 46.4219 15.6562C46.9323 15.6562 47.349 15.5391 47.6719 15.3047C47.9948 15.0651 48.2318 14.7214 48.3828 14.2734C48.5339 13.8255 48.6094 13.2865 48.6094 12.6562C48.6094 12.026 48.5339 11.4922 48.3828 11.0547C48.2318 10.612 47.9948 10.276 47.6719 10.0469C47.349 9.8125 46.9297 9.69531 46.4141 9.69531C45.6536 9.69531 45.099 9.95052 44.75 10.4609C44.401 10.9714 44.2266 11.7031 44.2266 12.6562ZM60.25 17.1562C59.4323 17.1562 58.724 16.9974 58.125 16.6797C57.526 16.362 57.0651 15.875 56.7422 15.2188C56.4193 14.5625 56.2578 13.7292 56.2578 12.7188C56.2578 11.6667 56.4349 10.8073 56.7891 10.1406C57.1432 9.47396 57.6328 8.98177 58.2578 8.66406C58.888 8.34635 59.6094 8.1875 60.4219 8.1875C60.9375 8.1875 61.4036 8.23958 61.8203 8.34375C62.2422 8.44271 62.599 8.5651 62.8906 8.71094L62.3438 10.1797C62.026 10.0495 61.7005 9.9401 61.3672 9.85156C61.0339 9.76302 60.7135 9.71875 60.4062 9.71875C59.901 9.71875 59.4792 9.83073 59.1406 10.0547C58.8073 10.2786 58.5573 10.612 58.3906 11.0547C58.2292 11.4974 58.1484 12.0469 58.1484 12.7031C58.1484 13.3385 58.2318 13.875 58.3984 14.3125C58.5651 14.7448 58.8125 15.0729 59.1406 15.2969C59.4688 15.5156 59.8724 15.625 60.3516 15.625C60.8255 15.625 61.25 15.5677 61.625 15.4531C62 15.3385 62.3542 15.1901 62.6875 15.0078V16.6016C62.3594 16.7891 62.0078 16.9271 61.6328 17.0156C61.2578 17.1094 60.7969 17.1562 60.25 17.1562ZM72.375 12.6562C72.375 13.375 72.2812 14.013 72.0938 14.5703C71.9062 15.1276 71.6328 15.599 71.2734 15.9844C70.9141 16.3646 70.4818 16.6562 69.9766 16.8594C69.4714 17.0573 68.901 17.1562 68.2656 17.1562C67.6719 17.1562 67.1276 17.0573 66.6328 16.8594C66.138 16.6562 65.7083 16.3646 65.3438 15.9844C64.9844 15.599 64.7057 15.1276 64.5078 14.5703C64.3099 14.013 64.2109 13.375 64.2109 12.6562C64.2109 11.7031 64.375 10.8958 64.7031 10.2344C65.0365 9.56771 65.5104 9.0599 66.125 8.71094C66.7396 8.36198 67.4714 8.1875 68.3203 8.1875C69.1172 8.1875 69.8203 8.36198 70.4297 8.71094C71.0391 9.0599 71.5156 9.56771 71.8594 10.2344C72.2031 10.901 72.375 11.7083 72.375 12.6562ZM66.1016 12.6562C66.1016 13.2865 66.1771 13.8255 66.3281 14.2734C66.4844 14.7214 66.724 15.0651 67.0469 15.3047C67.3698 15.5391 67.7865 15.6562 68.2969 15.6562C68.8073 15.6562 69.224 15.5391 69.5469 15.3047C69.8698 15.0651 70.1068 14.7214 70.2578 14.2734C70.4089 13.8255 70.4844 13.2865 70.4844 12.6562C70.4844 12.026 70.4089 11.4922 70.2578 11.0547C70.1068 10.612 69.8698 10.276 69.5469 10.0469C69.224 9.8125 68.8047 9.69531 68.2891 9.69531C67.5286 9.69531 66.974 9.95052 66.625 10.4609C66.276 10.9714 66.1016 11.7031 66.1016 12.6562ZM78.9922 8.1875C79.9661 8.1875 80.724 8.4401 81.2656 8.94531C81.8125 9.44531 82.0859 10.25 82.0859 11.3594V17H80.25V11.7031C80.25 11.0312 80.112 10.5286 79.8359 10.1953C79.5599 9.85677 79.1328 9.6875 78.5547 9.6875C77.7161 9.6875 77.1328 9.94531 76.8047 10.4609C76.4818 10.9766 76.3203 11.724 76.3203 12.7031V17H74.4844V8.35156H75.9141L76.1719 9.52344H76.2734C76.4609 9.22135 76.6927 8.97396 76.9688 8.78125C77.25 8.58333 77.5625 8.4349 77.9062 8.33594C78.2552 8.23698 78.6172 8.1875 78.9922 8.1875ZM87.875 15.6719C88.1146 15.6719 88.3516 15.651 88.5859 15.6094C88.8203 15.5625 89.0339 15.5078 89.2266 15.4453V16.8359C89.0234 16.9245 88.7604 17 88.4375 17.0625C88.1146 17.125 87.7786 17.1562 87.4297 17.1562C86.9401 17.1562 86.5 17.0755 86.1094 16.9141C85.7188 16.7474 85.4089 16.4635 85.1797 16.0625C84.9505 15.6615 84.8359 15.1068 84.8359 14.3984V9.75H83.6562V8.92969L84.9219 8.28125L85.5234 6.42969H86.6797V8.35156H89.1562V9.75H86.6797V14.375C86.6797 14.8125 86.7891 15.138 87.0078 15.3516C87.2266 15.5651 87.5156 15.6719 87.875 15.6719ZM95.3672 8.1875C95.513 8.1875 95.6719 8.19531 95.8438 8.21094C96.0156 8.22656 96.1641 8.2474 96.2891 8.27344L96.1172 9.99219C96.0078 9.96094 95.8724 9.9375 95.7109 9.92188C95.5547 9.90625 95.4141 9.89844 95.2891 9.89844C94.9609 9.89844 94.6484 9.95312 94.3516 10.0625C94.0547 10.1667 93.7917 10.3281 93.5625 10.5469C93.3333 10.7604 93.1536 11.0286 93.0234 11.3516C92.8932 11.6745 92.8281 12.0495 92.8281 12.4766V17H90.9844V8.35156H92.4219L92.6719 9.875H92.7578C92.9297 9.56771 93.1432 9.28646 93.3984 9.03125C93.6536 8.77604 93.9453 8.57292 94.2734 8.42188C94.6068 8.26562 94.9714 8.1875 95.3672 8.1875ZM101.281 8.1875C102.375 8.1875 103.201 8.42969 103.758 8.91406C104.32 9.39844 104.602 10.1536 104.602 11.1797V17H103.297L102.945 15.7734H102.883C102.638 16.0859 102.385 16.3438 102.125 16.5469C101.865 16.75 101.562 16.901 101.219 17C100.88 17.1042 100.466 17.1562 99.9766 17.1562C99.4609 17.1562 99 17.0625 98.5938 16.875C98.1875 16.6823 97.8672 16.3906 97.6328 16C97.3984 15.6094 97.2812 15.1146 97.2812 14.5156C97.2812 13.625 97.612 12.9557 98.2734 12.5078C98.9401 12.0599 99.9453 11.8125 101.289 11.7656L102.789 11.7109V11.2578C102.789 10.6589 102.648 10.2318 102.367 9.97656C102.091 9.72135 101.701 9.59375 101.195 9.59375C100.763 9.59375 100.344 9.65625 99.9375 9.78125C99.5312 9.90625 99.1354 10.0599 98.75 10.2422L98.1562 8.94531C98.5781 8.72135 99.0573 8.53906 99.5938 8.39844C100.135 8.25781 100.698 8.1875 101.281 8.1875ZM102.781 12.8672L101.664 12.9062C100.747 12.9375 100.104 13.0938 99.7344 13.375C99.3646 13.6562 99.1797 14.0417 99.1797 14.5312C99.1797 14.9583 99.3073 15.2708 99.5625 15.4688C99.8177 15.6615 100.154 15.7578 100.57 15.7578C101.206 15.7578 101.732 15.5781 102.148 15.2188C102.57 14.8542 102.781 14.3203 102.781 13.6172V12.8672ZM110.656 17.1562C109.839 17.1562 109.13 16.9974 108.531 16.6797C107.932 16.362 107.471 15.875 107.148 15.2188C106.826 14.5625 106.664 13.7292 106.664 12.7188C106.664 11.6667 106.841 10.8073 107.195 10.1406C107.549 9.47396 108.039 8.98177 108.664 8.66406C109.294 8.34635 110.016 8.1875 110.828 8.1875C111.344 8.1875 111.81 8.23958 112.227 8.34375C112.648 8.44271 113.005 8.5651 113.297 8.71094L112.75 10.1797C112.432 10.0495 112.107 9.9401 111.773 9.85156C111.44 9.76302 111.12 9.71875 110.812 9.71875C110.307 9.71875 109.885 9.83073 109.547 10.0547C109.214 10.2786 108.964 10.612 108.797 11.0547C108.635 11.4974 108.555 12.0469 108.555 12.7031C108.555 13.3385 108.638 13.875 108.805 14.3125C108.971 14.7448 109.219 15.0729 109.547 15.2969C109.875 15.5156 110.279 15.625 110.758 15.625C111.232 15.625 111.656 15.5677 112.031 15.4531C112.406 15.3385 112.76 15.1901 113.094 15.0078V16.6016C112.766 16.7891 112.414 16.9271 112.039 17.0156C111.664 17.1094 111.203 17.1562 110.656 17.1562ZM118.344 15.6719C118.583 15.6719 118.82 15.651 119.055 15.6094C119.289 15.5625 119.503 15.5078 119.695 15.4453V16.8359C119.492 16.9245 119.229 17 118.906 17.0625C118.583 17.125 118.247 17.1562 117.898 17.1562C117.409 17.1562 116.969 17.0755 116.578 16.9141C116.188 16.7474 115.878 16.4635 115.648 16.0625C115.419 15.6615 115.305 15.1068 115.305 14.3984V9.75H114.125V8.92969L115.391 8.28125L115.992 6.42969H117.148V8.35156H119.625V9.75H117.148V14.375C117.148 14.8125 117.258 15.138 117.477 15.3516C117.695 15.5651 117.984 15.6719 118.344 15.6719Z" fill="white"/>
<path d="M147.45 20H152.55C156.8 20 158.5 18.3 158.5 14.05V8.95C158.5 4.7 156.8 3 152.55 3H147.45C143.2 3 141.5 4.7 141.5 8.95V14.05C141.5 18.3 143.2 20 147.45 20Z" stroke="white" stroke-width="1.5" stroke-linecap="round" stroke-linejoin="round"/>
<path d="M145 11.2059L148.556 14.5L155 7.5" stroke="white" stroke-width="2.5"/>
<path d="M177.031 17H174.727L169.133 7.88281H169.062C169.083 8.1901 169.102 8.51562 169.117 8.85938C169.138 9.20312 169.154 9.55729 169.164 9.92188C169.18 10.2865 169.193 10.6562 169.203 11.0312V17H167.5V5.57812H169.789L175.375 14.6328H175.43C175.419 14.3672 175.406 14.0625 175.391 13.7188C175.375 13.375 175.359 13.0208 175.344 12.6562C175.333 12.2865 175.326 11.9297 175.32 11.5859V5.57812H177.031V17ZM187.5 12.6562C187.5 13.375 187.406 14.013 187.219 14.5703C187.031 15.1276 186.758 15.599 186.398 15.9844C186.039 16.3646 185.607 16.6562 185.102 16.8594C184.596 17.0573 184.026 17.1562 183.391 17.1562C182.797 17.1562 182.253 17.0573 181.758 16.8594C181.263 16.6562 180.833 16.3646 180.469 15.9844C180.109 15.599 179.831 15.1276 179.633 14.5703C179.435 14.013 179.336 13.375 179.336 12.6562C179.336 11.7031 179.5 10.8958 179.828 10.2344C180.161 9.56771 180.635 9.0599 181.25 8.71094C181.865 8.36198 182.596 8.1875 183.445 8.1875C184.242 8.1875 184.945 8.36198 185.555 8.71094C186.164 9.0599 186.641 9.56771 186.984 10.2344C187.328 10.901 187.5 11.7083 187.5 12.6562ZM181.227 12.6562C181.227 13.2865 181.302 13.8255 181.453 14.2734C181.609 14.7214 181.849 15.0651 182.172 15.3047C182.495 15.5391 182.911 15.6562 183.422 15.6562C183.932 15.6562 184.349 15.5391 184.672 15.3047C184.995 15.0651 185.232 14.7214 185.383 14.2734C185.534 13.8255 185.609 13.2865 185.609 12.6562C185.609 12.026 185.534 11.4922 185.383 11.0547C185.232 10.612 184.995 10.276 184.672 10.0469C184.349 9.8125 183.93 9.69531 183.414 9.69531C182.654 9.69531 182.099 9.95052 181.75 10.4609C181.401 10.9714 181.227 11.7031 181.227 12.6562ZM197.25 17.1562C196.432 17.1562 195.724 16.9974 195.125 16.6797C194.526 16.362 194.065 15.875 193.742 15.2188C193.419 14.5625 193.258 13.7292 193.258 12.7188C193.258 11.6667 193.435 10.8073 193.789 10.1406C194.143 9.47396 194.633 8.98177 195.258 8.66406C195.888 8.34635 196.609 8.1875 197.422 8.1875C197.938 8.1875 198.404 8.23958 198.82 8.34375C199.242 8.44271 199.599 8.5651 199.891 8.71094L199.344 10.1797C199.026 10.0495 198.701 9.9401 198.367 9.85156C198.034 9.76302 197.714 9.71875 197.406 9.71875C196.901 9.71875 196.479 9.83073 196.141 10.0547C195.807 10.2786 195.557 10.612 195.391 11.0547C195.229 11.4974 195.148 12.0469 195.148 12.7031C195.148 13.3385 195.232 13.875 195.398 14.3125C195.565 14.7448 195.812 15.0729 196.141 15.2969C196.469 15.5156 196.872 15.625 197.352 15.625C197.826 15.625 198.25 15.5677 198.625 15.4531C199 15.3385 199.354 15.1901 199.688 15.0078V16.6016C199.359 16.7891 199.008 16.9271 198.633 17.0156C198.258 17.1094 197.797 17.1562 197.25 17.1562ZM206.102 8.1875C206.247 8.1875 206.406 8.19531 206.578 8.21094C206.75 8.22656 206.898 8.2474 207.023 8.27344L206.852 9.99219C206.742 9.96094 206.607 9.9375 206.445 9.92188C206.289 9.90625 206.148 9.89844 206.023 9.89844C205.695 9.89844 205.383 9.95312 205.086 10.0625C204.789 10.1667 204.526 10.3281 204.297 10.5469C204.068 10.7604 203.888 11.0286 203.758 11.3516C203.628 11.6745 203.562 12.0495 203.562 12.4766V17H201.719V8.35156H203.156L203.406 9.875H203.492C203.664 9.56771 203.878 9.28646 204.133 9.03125C204.388 8.77604 204.68 8.57292 205.008 8.42188C205.341 8.26562 205.706 8.1875 206.102 8.1875ZM212.07 8.1875C212.841 8.1875 213.503 8.34635 214.055 8.66406C214.607 8.98177 215.031 9.43229 215.328 10.0156C215.625 10.599 215.773 11.2969 215.773 12.1094V13.0938H210C210.021 13.9323 210.245 14.5781 210.672 15.0312C211.104 15.4844 211.708 15.7109 212.484 15.7109C213.036 15.7109 213.531 15.6589 213.969 15.5547C214.411 15.4453 214.867 15.2865 215.336 15.0781V16.5703C214.904 16.7734 214.464 16.9219 214.016 17.0156C213.568 17.1094 213.031 17.1562 212.406 17.1562C211.557 17.1562 210.81 16.9922 210.164 16.6641C209.523 16.3307 209.021 15.8359 208.656 15.1797C208.297 14.5234 208.117 13.7083 208.117 12.7344C208.117 11.7656 208.281 10.9427 208.609 10.2656C208.938 9.58854 209.398 9.07292 209.992 8.71875C210.586 8.36458 211.279 8.1875 212.07 8.1875ZM212.07 9.57031C211.492 9.57031 211.023 9.75781 210.664 10.1328C210.31 10.5078 210.102 11.0573 210.039 11.7812H213.977C213.971 11.349 213.898 10.9661 213.758 10.6328C213.622 10.2995 213.414 10.0391 213.133 9.85156C212.857 9.66406 212.503 9.57031 212.07 9.57031ZM220.75 17.1562C219.719 17.1562 218.891 16.7812 218.266 16.0312C217.646 15.276 217.336 14.1641 217.336 12.6953C217.336 11.2109 217.651 10.0885 218.281 9.32812C218.917 8.56771 219.753 8.1875 220.789 8.1875C221.227 8.1875 221.609 8.2474 221.938 8.36719C222.266 8.48177 222.547 8.63802 222.781 8.83594C223.021 9.03385 223.224 9.25521 223.391 9.5H223.477C223.451 9.33854 223.419 9.10677 223.383 8.80469C223.352 8.4974 223.336 8.21354 223.336 7.95312V4.84375H225.18V17H223.742L223.414 15.8203H223.336C223.18 16.0703 222.982 16.2969 222.742 16.5C222.508 16.6979 222.227 16.8568 221.898 16.9766C221.576 17.0964 221.193 17.1562 220.75 17.1562ZM221.266 15.6641C222.052 15.6641 222.607 15.4375 222.93 14.9844C223.253 14.5312 223.419 13.8516 223.43 12.9453V12.7031C223.43 11.7344 223.273 10.9922 222.961 10.4766C222.648 9.95573 222.078 9.69531 221.25 9.69531C220.589 9.69531 220.083 9.96354 219.734 10.5C219.391 11.0312 219.219 11.7734 219.219 12.7266C219.219 13.6797 219.391 14.4089 219.734 14.9141C220.083 15.4141 220.594 15.6641 221.266 15.6641ZM229.648 8.35156V17H227.812V8.35156H229.648ZM228.742 5.03906C229.023 5.03906 229.266 5.11458 229.469 5.26562C229.677 5.41667 229.781 5.67708 229.781 6.04688C229.781 6.41146 229.677 6.67188 229.469 6.82812C229.266 6.97917 229.023 7.05469 228.742 7.05469C228.451 7.05469 228.203 6.97917 228 6.82812C227.802 6.67188 227.703 6.41146 227.703 6.04688C227.703 5.67708 227.802 5.41667 228 5.26562C228.203 5.11458 228.451 5.03906 228.742 5.03906ZM235.5 15.6719C235.74 15.6719 235.977 15.651 236.211 15.6094C236.445 15.5625 236.659 15.5078 236.852 15.4453V16.8359C236.648 16.9245 236.385 17 236.062 17.0625C235.74 17.125 235.404 17.1562 235.055 17.1562C234.565 17.1562 234.125 17.0755 233.734 16.9141C233.344 16.7474 233.034 16.4635 232.805 16.0625C232.576 15.6615 232.461 15.1068 232.461 14.3984V9.75H231.281V8.92969L232.547 8.28125L233.148 6.42969H234.305V8.35156H236.781V9.75H234.305V14.375C234.305 14.8125 234.414 15.138 234.633 15.3516C234.852 15.5651 235.141 15.6719 235.5 15.6719ZM246.25 17.1562C245.432 17.1562 244.724 16.9974 244.125 16.6797C243.526 16.362 243.065 15.875 242.742 15.2188C242.419 14.5625 242.258 13.7292 242.258 12.7188C242.258 11.6667 242.435 10.8073 242.789 10.1406C243.143 9.47396 243.633 8.98177 244.258 8.66406C244.888 8.34635 245.609 8.1875 246.422 8.1875C246.938 8.1875 247.404 8.23958 247.82 8.34375C248.242 8.44271 248.599 8.5651 248.891 8.71094L248.344 10.1797C248.026 10.0495 247.701 9.9401 247.367 9.85156C247.034 9.76302 246.714 9.71875 246.406 9.71875C245.901 9.71875 245.479 9.83073 245.141 10.0547C244.807 10.2786 244.557 10.612 244.391 11.0547C244.229 11.4974 244.148 12.0469 244.148 12.7031C244.148 13.3385 244.232 13.875 244.398 14.3125C244.565 14.7448 244.812 15.0729 245.141 15.2969C245.469 15.5156 245.872 15.625 246.352 15.625C246.826 15.625 247.25 15.5677 247.625 15.4531C248 15.3385 248.354 15.1901 248.688 15.0078V16.6016C248.359 16.7891 248.008 16.9271 247.633 17.0156C247.258 17.1094 246.797 17.1562 246.25 17.1562ZM252.555 4.84375V7.89844C252.555 8.21615 252.544 8.52604 252.523 8.82812C252.508 9.13021 252.49 9.36458 252.469 9.53125H252.57C252.753 9.22917 252.977 8.98177 253.242 8.78906C253.508 8.59115 253.805 8.44271 254.133 8.34375C254.466 8.24479 254.82 8.19531 255.195 8.19531C255.857 8.19531 256.419 8.30729 256.883 8.53125C257.346 8.75 257.701 9.09115 257.945 9.55469C258.195 10.0182 258.32 10.6198 258.32 11.3594V17H256.484V11.7031C256.484 11.0312 256.346 10.5286 256.07 10.1953C255.794 9.85677 255.367 9.6875 254.789 9.6875C254.232 9.6875 253.789 9.80469 253.461 10.0391C253.138 10.2682 252.906 10.6094 252.766 11.0625C252.625 11.5104 252.555 12.0573 252.555 12.7031V17H250.719V4.84375H252.555ZM264.336 8.1875C265.107 8.1875 265.768 8.34635 266.32 8.66406C266.872 8.98177 267.297 9.43229 267.594 10.0156C267.891 10.599 268.039 11.2969 268.039 12.1094V13.0938H262.266C262.286 13.9323 262.51 14.5781 262.938 15.0312C263.37 15.4844 263.974 15.7109 264.75 15.7109C265.302 15.7109 265.797 15.6589 266.234 15.5547C266.677 15.4453 267.133 15.2865 267.602 15.0781V16.5703C267.169 16.7734 266.729 16.9219 266.281 17.0156C265.833 17.1094 265.297 17.1562 264.672 17.1562C263.823 17.1562 263.076 16.9922 262.43 16.6641C261.789 16.3307 261.286 15.8359 260.922 15.1797C260.562 14.5234 260.383 13.7083 260.383 12.7344C260.383 11.7656 260.547 10.9427 260.875 10.2656C261.203 9.58854 261.664 9.07292 262.258 8.71875C262.852 8.36458 263.544 8.1875 264.336 8.1875ZM264.336 9.57031C263.758 9.57031 263.289 9.75781 262.93 10.1328C262.576 10.5078 262.367 11.0573 262.305 11.7812H266.242C266.237 11.349 266.164 10.9661 266.023 10.6328C265.888 10.2995 265.68 10.0391 265.398 9.85156C265.122 9.66406 264.768 9.57031 264.336 9.57031ZM273.594 17.1562C272.776 17.1562 272.068 16.9974 271.469 16.6797C270.87 16.362 270.409 15.875 270.086 15.2188C269.763 14.5625 269.602 13.7292 269.602 12.7188C269.602 11.6667 269.779 10.8073 270.133 10.1406C270.487 9.47396 270.977 8.98177 271.602 8.66406C272.232 8.34635 272.953 8.1875 273.766 8.1875C274.281 8.1875 274.747 8.23958 275.164 8.34375C275.586 8.44271 275.943 8.5651 276.234 8.71094L275.688 10.1797C275.37 10.0495 275.044 9.9401 274.711 9.85156C274.378 9.76302 274.057 9.71875 273.75 9.71875C273.245 9.71875 272.823 9.83073 272.484 10.0547C272.151 10.2786 271.901 10.612 271.734 11.0547C271.573 11.4974 271.492 12.0469 271.492 12.7031C271.492 13.3385 271.576 13.875 271.742 14.3125C271.909 14.7448 272.156 15.0729 272.484 15.2969C272.812 15.5156 273.216 15.625 273.695 15.625C274.169 15.625 274.594 15.5677 274.969 15.4531C275.344 15.3385 275.698 15.1901 276.031 15.0078V16.6016C275.703 16.7891 275.352 16.9271 274.977 17.0156C274.602 17.1094 274.141 17.1562 273.594 17.1562ZM279.898 4.84375V10.7188C279.898 10.9844 279.888 11.276 279.867 11.5938C279.846 11.9062 279.826 12.2005 279.805 12.4766H279.844C279.979 12.2943 280.141 12.0807 280.328 11.8359C280.521 11.5911 280.703 11.3776 280.875 11.1953L283.516 8.35156H285.625L282.164 12.0703L285.852 17H283.695L280.93 13.2031L279.898 14.0859V17H278.062V4.84375H279.898Z" fill="white"/>
</svg>
