<svg width="25" height="30" viewBox="0 0 25 30" fill="none" xmlns="http://www.w3.org/2000/svg">
<path d="M15.0611 1.49566L3.46862 4.33477C2.0253 4.68825 1.41077 6.19418 1.78413 7.50487L7.25747 26.7188C7.63083 28.0295 8.96722 29.0577 10.4105 28.7042L22.003 25.8651C23.4463 25.5116 24.0609 24.0057 23.6875 22.695L18.2142 3.48099C17.8408 2.1703 16.5044 1.14217 15.0611 1.49566Z" stroke="#FF8033" stroke-width="2"/>
<path d="M13.5112 24.3346L16.5765 23.4943C16.7269 23.4531 16.9115 23.5433 16.9632 23.741C17.015 23.9386 16.8993 24.1112 16.7489 24.1524L13.6835 24.9927C13.5331 25.034 13.3486 24.9437 13.2968 24.7461C13.2451 24.5484 13.3608 24.3758 13.5112 24.3346Z" stroke="#FF8033"/>
<path d="M4.26989 6.64894L15.6491 3.86374C15.7422 3.84095 15.9442 3.90286 16.0165 4.15667L20.6723 20.4868C20.7447 20.7407 20.602 20.8869 20.5089 20.9097L9.12973 23.6949C9.0366 23.7177 8.83464 23.6558 8.76228 23.402L4.10651 7.07179C4.03415 6.81797 4.17677 6.67173 4.26989 6.64894Z" stroke="#FF8033"/>
<path d="M7.81444 18.6226L6.97258 15.8739L12.0852 4.68422L14.424 4.1551L7.81444 18.6226Z" stroke="#FF8033"/>
<path d="M9.12905 23.3435L9.03668 23.0409L16.3679 6.91652L18.5225 13.9758L14.6646 22.4991L9.48789 23.6708C9.45343 23.6786 9.39679 23.6753 9.32261 23.6234C9.24721 23.5706 9.16935 23.4755 9.12905 23.3435Z" stroke="#FF8033"/>
<path d="M10.4504 6.37363C10.6453 6.32021 10.7603 6.11287 10.7073 5.91053C10.6543 5.70819 10.4533 5.58746 10.2585 5.64088C10.0636 5.6943 9.9486 5.90164 10.0016 6.10398C10.0546 6.30633 10.2555 6.42705 10.4504 6.37363Z" fill="#FF8033"/>
</svg>
