<svg width="102" height="78" viewBox="0 0 102 78" fill="none" xmlns="http://www.w3.org/2000/svg">
<style> path { filter: drop-shadow(0px 1px 3px rgba(34, 34, 34, 0.70)); } </style>
<path d="M39.4612 0.0999146V16.1999H42.3964V0.0999146H39.4612ZM33.5908 2.11241V16.1999H36.526V2.11241H33.5908ZM27.7205 6.13739V16.1999H30.6557V6.13739H27.7205ZM21.8501 10.1624V16.1999H24.7853V10.1624H21.8501Z" fill="white"/>
<path d="M51.6759 13.9904L52.201 11.734H47.3965L47.8428 9.69276L54.5114 2.33329H57.6619L56.0342 9.3818H57.3381L56.8043 11.734H55.4916L54.9752 13.9904H51.6759ZM50.9058 9.3818H52.7349L53.1637 7.83495C53.222 7.64891 53.2862 7.43894 53.3562 7.20505C53.4262 6.97117 53.4933 6.75588 53.5575 6.55921C53.6217 6.35721 53.6654 6.22166 53.6888 6.15256H53.61C53.505 6.33329 53.3562 6.56186 53.1637 6.83827C52.977 7.10937 52.7932 7.33794 52.6124 7.52399L50.9058 9.3818Z" fill="white"/>
<path d="M62.8785 14.1499C61.4316 14.1499 60.2677 13.7619 59.3867 12.9858C58.5115 12.2044 58.074 11.0429 58.074 9.5014C58.074 8.7519 58.1702 8.021 58.3628 7.30871C58.5611 6.5911 58.8558 5.92133 59.2467 5.2994C59.6434 4.67748 60.1393 4.12997 60.7344 3.65688C61.3295 3.18379 62.0296 2.81435 62.8348 2.54857C63.6399 2.28279 64.553 2.1499 65.574 2.1499C66.3149 2.1499 67.0238 2.22166 67.7006 2.36518C68.3773 2.50871 68.9754 2.72133 69.4946 3.00306L68.2082 5.46685C67.8406 5.27017 67.4293 5.10273 66.9742 4.96452C66.525 4.821 66.0436 4.74924 65.5302 4.74924C64.7834 4.74924 64.1533 4.90605 63.6399 5.21967C63.1323 5.53329 62.7239 5.93462 62.4147 6.42366C62.1055 6.90738 61.8808 7.42033 61.7408 7.96253C61.6066 8.4994 61.5395 8.99641 61.5395 9.45356C61.5395 9.94259 61.6096 10.3439 61.7496 10.6575C61.8896 10.9658 62.0938 11.1944 62.3622 11.3433C62.6364 11.4868 62.9719 11.5585 63.3686 11.5585C63.602 11.5585 63.7945 11.5506 63.9462 11.5346C64.1037 11.5134 64.2992 11.4841 64.5325 11.4469L64.9789 9.59708H62.9748L63.5611 7.16518H68.8995L67.438 13.5041C66.8254 13.6848 66.1516 13.8389 65.4164 13.9665C64.6813 14.0888 63.8353 14.1499 62.8785 14.1499Z" fill="white"/>
<path d="M73.1891 13.9904L75.8933 2.33329H79.3152L77.2061 11.4469H81.3805L80.7854 13.9904H73.1891Z" fill="white"/>
<path d="M83.7003 13.9904L85.7744 4.90871H83.0002L83.6041 2.33329H92.6006L91.9792 4.90871H89.1962L87.1222 13.9904H83.7003Z" fill="white"/>
<path d="M91.096 13.9904L93.8002 2.33329H101.396L100.828 4.86087H96.6532L96.2419 6.69475H100.128L99.4974 9.22233H95.6118L95.1129 11.423H99.2874L98.6923 13.9904H91.096Z" fill="white"/>
<path fill-rule="evenodd" clip-rule="evenodd" d="M7.7374 32.2174C8.01073 32.1442 8.29168 32.3064 8.36492 32.5797L9.15661 35.5343C10.8122 34.6188 12.687 34.1261 14.6127 34.1261C16.5324 34.1261 18.4017 34.6158 20.0535 35.5259L20.8429 32.5797C20.9161 32.3064 21.1971 32.1442 21.4704 32.2174C21.7438 32.2907 21.906 32.5716 21.8327 32.8449L20.9644 36.0857C21.541 36.4789 22.0838 36.9275 22.5843 37.4281C24.6985 39.5423 25.8863 42.4098 25.8863 45.3997H14.6127L3.33911 45.3997C3.33911 42.4098 4.52686 39.5423 6.64106 37.4281C7.13732 36.9318 7.67507 36.4866 8.24617 36.0958L7.3751 32.8449C7.30186 32.5716 7.46407 32.2907 7.7374 32.2174ZM9.55594 40.9459C9.55594 41.5352 9.07821 42.0129 8.48889 42.0129C7.89958 42.0129 7.42185 41.5352 7.42185 40.9459C7.42185 40.3566 7.89958 39.8789 8.48889 39.8789C9.07821 39.8789 9.55594 40.3566 9.55594 40.9459ZM20.6438 42.0129C21.2331 42.0129 21.7108 41.5352 21.7108 40.9459C21.7108 40.3566 21.2331 39.8789 20.6438 39.8789C20.0545 39.8789 19.5767 40.3566 19.5767 40.9459C19.5767 41.5352 20.0545 42.0129 20.6438 42.0129Z" fill="white"/>
<path d="M40.565 45.2759L39.9089 43.1219H36.6097L35.9536 45.2759H33.8862L37.0801 36.1893H39.4261L42.6323 45.2759H40.565ZM39.4508 41.5125L38.7947 39.408C38.7534 39.2677 38.6977 39.0882 38.6276 38.8695C38.5616 38.6467 38.4935 38.4218 38.4233 38.1948C38.3573 37.9637 38.3036 37.7636 38.2624 37.5944C38.2211 37.7636 38.1633 37.974 38.0891 38.2258C38.0189 38.4734 37.9508 38.7086 37.8848 38.9314C37.8188 39.1542 37.7713 39.3131 37.7424 39.408L37.0925 41.5125H39.4508Z" fill="white"/>
<path d="M51.8056 45.2759H49.3668L45.4301 38.43H45.3744C45.3909 38.7148 45.4054 39.0015 45.4177 39.2904C45.4301 39.5793 45.4425 39.8681 45.4549 40.157C45.4673 40.4417 45.4796 40.7285 45.492 41.0173V45.2759H43.7775V36.2265H46.1976L50.1281 43.0042H50.1715C50.1632 42.7236 50.1529 42.4451 50.1405 42.1686C50.1281 41.8922 50.1158 41.6157 50.1034 41.3392C50.0951 41.0627 50.0869 40.7863 50.0786 40.5098V36.2265H51.8056V45.2759Z" fill="white"/>
<path d="M61.5977 40.6645C61.5977 41.6838 61.4017 42.5359 61.0097 43.2209C60.6218 43.9018 60.0586 44.4155 59.3199 44.7621C58.5813 45.1046 57.692 45.2759 56.6521 45.2759H54.0896V36.2265H56.9307C57.8798 36.2265 58.703 36.3957 59.4004 36.734C60.0978 37.0683 60.6383 37.5655 61.0221 38.2258C61.4059 38.8819 61.5977 39.6948 61.5977 40.6645ZM59.6046 40.714C59.6046 40.0455 59.5056 39.4967 59.3075 39.0676C59.1136 38.6343 58.8247 38.3145 58.441 38.1082C58.0613 37.9018 57.5909 37.7987 57.0297 37.7987H56.0084V43.6913H56.8316C57.7684 43.6913 58.4637 43.4417 58.9176 42.9423C59.3756 42.443 59.6046 41.7003 59.6046 40.714Z" fill="white"/>
<path d="M66.1101 36.2265C66.9312 36.2265 67.608 36.3255 68.1403 36.5236C68.6768 36.7217 69.075 37.0208 69.3349 37.4211C69.5949 37.8214 69.7249 38.3269 69.7249 38.9376C69.7249 39.3502 69.6465 39.7113 69.4897 40.0208C69.3329 40.3303 69.1265 40.5923 68.8707 40.8069C68.6149 41.0215 68.3384 41.1968 68.0413 41.333L70.7029 45.2759H68.5736L66.4134 41.8034H65.3921V45.2759H63.4732V36.2265H66.1101ZM65.9739 37.7987H65.3921V40.2436H66.011C66.6465 40.2436 67.1004 40.1384 67.3728 39.9279C67.6493 39.7134 67.7875 39.3997 67.7875 38.9871C67.7875 38.5579 67.6389 38.2526 67.3418 38.071C67.0489 37.8895 66.5929 37.7987 65.9739 37.7987Z" fill="white"/>
<path d="M80.0556 40.7388C80.0556 41.4362 79.9689 42.0717 79.7956 42.6452C79.6223 43.2147 79.3582 43.7058 79.0033 44.1184C78.6526 44.5311 78.2069 44.8488 77.6663 45.0716C77.1258 45.2903 76.4862 45.3997 75.7475 45.3997C75.0089 45.3997 74.3693 45.2903 73.8287 45.0716C73.2881 44.8488 72.8404 44.5311 72.4855 44.1184C72.1348 43.7058 71.8727 43.2126 71.6994 42.6391C71.5261 42.0655 71.4394 41.4279 71.4394 40.7264C71.4394 39.7897 71.5921 38.9747 71.8975 38.2815C72.207 37.5841 72.6815 37.0435 73.3211 36.6598C73.9607 36.276 74.7737 36.0841 75.7599 36.0841C76.742 36.0841 77.5487 36.276 78.1801 36.6598C78.8156 37.0435 79.286 37.5841 79.5913 38.2815C79.9008 38.9788 80.0556 39.798 80.0556 40.7388ZM73.4511 40.7388C73.4511 41.3702 73.5295 41.9149 73.6863 42.3729C73.8473 42.8268 74.0969 43.1776 74.4353 43.4251C74.7737 43.6686 75.2111 43.7903 75.7475 43.7903C76.2922 43.7903 76.7337 43.6686 77.0721 43.4251C77.4105 43.1776 77.656 42.8268 77.8087 42.3729C77.9655 41.9149 78.0439 41.3702 78.0439 40.7388C78.0439 39.7897 77.8665 39.0428 77.5116 38.4981C77.1567 37.9534 76.5728 37.6811 75.7599 37.6811C75.2193 37.6811 74.7778 37.8049 74.4353 38.0524C74.0969 38.2959 73.8473 38.6467 73.6863 39.1047C73.5295 39.5586 73.4511 40.1033 73.4511 40.7388Z" fill="white"/>
<path d="M81.9311 45.2759V36.2265H83.8499V45.2759H81.9311Z" fill="white"/>
<path d="M93.6359 40.6645C93.6359 41.6838 93.4399 42.5359 93.0479 43.2209C92.66 43.9018 92.0967 44.4155 91.3581 44.7621C90.6194 45.1046 89.7302 45.2759 88.6903 45.2759H86.1277V36.2265H88.9688C89.9179 36.2265 90.7411 36.3957 91.4385 36.734C92.1359 37.0683 92.6765 37.5655 93.0602 38.2258C93.444 38.8819 93.6359 39.6948 93.6359 40.6645ZM91.6428 40.714C91.6428 40.0455 91.5438 39.4967 91.3457 39.0676C91.1517 38.6343 90.8629 38.3145 90.4791 38.1082C90.0995 37.9018 89.6291 37.7987 89.0679 37.7987H88.0465V43.6913H88.8698C89.8065 43.6913 90.5018 43.4417 90.9557 42.9423C91.4138 42.443 91.6428 41.7003 91.6428 40.714Z" fill="white"/>
<path d="M96.204 39.5107H95.6391V36.5622H94.636V36.0841H97.2047V36.5622H96.204V39.5107Z" fill="white"/>
<path d="M99.3526 39.5107L98.3659 36.649H98.3448C98.3495 36.713 98.355 36.8005 98.3612 36.9115C98.3675 37.0224 98.373 37.1411 98.3776 37.2677C98.3823 37.3943 98.3847 37.5154 98.3847 37.631V39.5107H97.8737V36.0841H98.6636L99.6128 38.8193H99.6269L100.609 36.0841H101.396V39.5107H100.86V37.6029C100.86 37.4982 100.861 37.3849 100.864 37.263C100.869 37.1411 100.874 37.0255 100.878 36.9161C100.885 36.8068 100.889 36.7193 100.892 36.6536H100.874L99.8495 39.5107H99.3526Z" fill="white"/>
<path d="M9.98037 61.3997C6.30759 61.3997 2.90096 62.2605 0 63.7454L1.41056 65.4885C3.88569 64.2189 6.81327 63.5302 9.98037 63.5302C13.1741 63.5302 16.1549 64.1973 18.63 65.4885L20.0406 63.7454C17.1396 62.239 13.6531 61.3997 9.98037 61.3997ZM9.98037 67.8557C7.87784 67.8557 5.98822 68.3507 4.31152 69.2115L5.72208 71.0192C6.97295 70.3736 8.38351 70.0078 9.95376 70.0078C11.524 70.0078 13.041 70.3736 14.2919 71.0192L15.7024 69.2115C14.0524 68.3722 12.0563 67.8557 9.95376 67.8557H9.98037Z" fill="white"/>
<path d="M7.66553 75.2952C7.66553 74.0827 8.65754 73.0907 9.86999 73.0907C11.0824 73.0907 12.0745 74.0827 12.0745 75.2952C12.0745 76.5076 11.0824 77.4996 9.86999 77.4996C8.65754 77.4996 7.66553 76.5076 7.66553 75.2952Z" fill="white"/>
<path d="M29.8977 75.9497H25.8376V62.9497H34.8554V65.7685H29.8977V68.2493H34.4692V71.068H29.8977V75.9497Z" fill="white"/>
<path d="M41.97 62.9497C43.3547 62.9497 44.5062 63.0949 45.4247 63.3854C46.3432 63.67 47.032 64.0968 47.4913 64.6659C47.9574 65.2349 48.1905 65.9433 48.1905 66.791C48.1905 67.3186 48.0862 67.7988 47.8774 68.2315C47.6687 68.6643 47.3695 69.0525 46.9798 69.3964C46.5971 69.7343 46.1379 70.0306 45.6021 70.2855L50.0484 75.9497H45.3725L42.137 71.2192H41.0933V75.9497H36.9706V62.9497H41.97ZM41.9074 65.6084H41.0933V68.5783H41.8656C42.4988 68.5783 43.0172 68.4597 43.4208 68.2226C43.8243 67.9855 44.0261 67.5617 44.0261 66.9511C44.0261 66.5302 43.8591 66.2012 43.5251 65.9641C43.1911 65.727 42.6519 65.6084 41.9074 65.6084Z" fill="white"/>
<path d="M60.496 75.9497H51.4365V62.9497H60.496V65.7685H55.5592V67.8136H60.1307V70.6323H55.5592V73.0865H60.496V75.9497Z" fill="white"/>
<path d="M71.8376 75.9497H62.7782V62.9497H71.8376V65.7685H66.9009V67.8136H71.4723V70.6323H66.9009V73.0865H71.8376V75.9497Z" fill="white"/>
<path d="M78.2405 70.7142H76.9658V65.7874C76.9658 65.6234 76.9676 65.4593 76.9712 65.2953C76.9748 65.1312 76.9784 64.9707 76.982 64.8136C76.9892 64.6565 76.9982 64.5064 77.009 64.3633C76.9334 64.4436 76.8398 64.5309 76.7281 64.6251C76.6201 64.7194 76.5049 64.8171 76.3824 64.9183L75.475 65.6199L74.8376 64.8398L77.1819 63.0597H78.2405V70.7142Z" fill="white"/>
<path d="M90.896 66.5571H93.8451V70.4001C93.431 70.5327 93.0025 70.6357 92.5596 70.709C92.1167 70.7823 91.6198 70.8189 91.0688 70.8189C90.2658 70.8189 89.5852 70.6654 89.0271 70.3582C88.4726 70.0475 88.0512 69.599 87.7632 69.0126C87.4751 68.4227 87.3311 67.7124 87.3311 66.8817C87.3311 66.0824 87.4913 65.3895 87.8118 64.8031C88.1323 64.2133 88.5986 63.7577 89.2107 63.4366C89.8229 63.112 90.5647 62.9497 91.4361 62.9497C91.8646 62.9497 92.2787 62.9916 92.6784 63.0754C93.0817 63.1556 93.4508 63.2673 93.7857 63.4104L93.332 64.4471C93.0655 64.3249 92.7667 64.222 92.4354 64.1382C92.1041 64.0544 91.7602 64.0125 91.4037 64.0125C90.8384 64.0125 90.3504 64.1312 89.9399 64.3686C89.533 64.6059 89.2198 64.941 89.0001 65.3738C88.7804 65.8032 88.6706 66.311 88.6706 66.8974C88.6706 67.4664 88.7588 67.9655 88.9353 68.3948C89.1117 68.8241 89.3872 69.1592 89.7617 69.4001C90.1398 69.6374 90.6277 69.7561 91.2255 69.7561C91.5243 69.7561 91.7782 69.7404 91.9871 69.709C92.1959 69.6776 92.3886 69.6427 92.565 69.6043V67.6304H90.896V66.5571Z" fill="white"/>
<path d="M95.7356 63.0597H98.0852C99.1043 63.0597 99.8731 63.2028 100.392 63.489C100.91 63.7752 101.169 64.2691 101.169 64.9707C101.169 65.2639 101.115 65.5292 101.007 65.7665C100.903 66.0004 100.75 66.1941 100.548 66.3477C100.347 66.4978 100.098 66.599 99.8029 66.6513V66.7037C100.109 66.756 100.381 66.8485 100.618 66.9812C100.86 67.1138 101.049 67.304 101.186 67.5519C101.326 67.7997 101.396 68.1208 101.396 68.5152C101.396 68.983 101.281 69.3809 101.051 69.709C100.824 70.0371 100.498 70.2866 100.073 70.4577C99.6516 70.6287 99.1511 70.7142 98.5714 70.7142H95.7356V63.0597ZM97.032 66.2168H98.2743C98.8612 66.2168 99.2681 66.1243 99.495 65.9393C99.7219 65.7543 99.8353 65.4838 99.8353 65.1277C99.8353 64.7647 99.7003 64.503 99.4302 64.3424C99.1637 64.1818 98.7388 64.1016 98.1555 64.1016H97.032V66.2168ZM97.032 67.2325V69.6618H98.3985C99.0035 69.6618 99.4284 69.5484 99.6732 69.3215C99.9181 69.0946 100.041 68.7875 100.041 68.4C100.041 68.1627 99.9847 67.9568 99.8731 67.7822C99.7651 67.6077 99.5868 67.4733 99.3384 67.3791C99.0899 67.2814 98.755 67.2325 98.3337 67.2325H97.032Z" fill="white"/>
<path d="M76.5243 75.7638L75.399 72.5717H75.3749C75.3803 72.6431 75.3865 72.7407 75.3936 72.8645C75.4008 72.9882 75.407 73.1207 75.4123 73.2619C75.4177 73.403 75.4204 73.5381 75.4204 73.6671V75.7638H74.8376V71.9416H75.7384L76.821 74.9926H76.837L77.957 71.9416H78.8551V75.7638H78.243V73.6357C78.243 73.5189 78.2448 73.3926 78.2484 73.2566C78.2537 73.1207 78.2591 72.9917 78.2644 72.8697C78.2715 72.7477 78.2769 72.6501 78.2804 72.5769H78.259L77.091 75.7638H76.5243Z" fill="white"/>
<path d="M83.3537 73.8475C83.3537 74.142 83.3154 74.4104 83.2388 74.6527C83.164 74.8932 83.0508 75.1006 82.8993 75.2749C82.7479 75.4475 82.5581 75.5808 82.33 75.6749C82.1019 75.769 81.8346 75.8161 81.5281 75.8161C81.2162 75.8161 80.9454 75.769 80.7155 75.6749C80.4874 75.5808 80.2976 75.4466 80.1462 75.2723C79.9965 75.098 79.8842 74.8897 79.8094 74.6475C79.7345 74.4052 79.6971 74.1368 79.6971 73.8422C79.6971 73.4483 79.763 73.105 79.8949 72.8122C80.0286 72.5176 80.2308 72.2893 80.5017 72.1272C80.7743 71.9634 81.1182 71.8815 81.5334 71.8815C81.9397 71.8815 82.2774 71.9625 82.5465 72.1246C82.8156 72.2867 83.0169 72.515 83.1506 72.8096C83.286 73.1024 83.3537 73.4483 83.3537 73.8475ZM80.3707 73.8475C80.3707 74.142 80.4117 74.3974 80.4937 74.6135C80.5756 74.8279 80.7013 74.9934 80.8705 75.1102C81.0416 75.2252 81.2608 75.2828 81.5281 75.2828C81.7972 75.2828 82.0164 75.2252 82.1856 75.1102C82.3549 74.9934 82.4797 74.8279 82.5599 74.6135C82.6401 74.3974 82.6801 74.142 82.6801 73.8475C82.6801 73.3995 82.5884 73.0492 82.4048 72.7965C82.2231 72.542 81.9326 72.4148 81.5334 72.4148C81.2661 72.4148 81.0461 72.4723 80.8732 72.5873C80.7021 72.7024 80.5756 72.8671 80.4937 73.0815C80.4117 73.2941 80.3707 73.5494 80.3707 73.8475Z" fill="white"/>
<path d="M87.4541 75.7638H86.6655L84.7517 72.7128H84.7276C84.7348 72.8157 84.741 72.9246 84.7464 73.0396C84.7535 73.1547 84.7588 73.2732 84.7624 73.3952C84.7677 73.5172 84.7722 73.6409 84.7758 73.7664V75.7638H84.193V71.9416H84.9762L86.8874 74.9716H86.9061C86.9025 74.8828 86.8981 74.7808 86.8927 74.6658C86.8874 74.5507 86.8821 74.4322 86.8767 74.3102C86.8731 74.1865 86.8705 74.0671 86.8687 73.952V71.9416H87.4541V75.7638Z" fill="white"/>
<path d="M89.8357 75.7638H89.1915V72.4749H88.0475V71.9416H90.977V72.4749H89.8357V75.7638Z" fill="white"/>
<path d="M94.6577 75.7638H94.0189V74.0383H92.2173V75.7638H91.5758V71.9416H92.2173V73.505H94.0189V71.9416H94.6577V75.7638Z" fill="white"/>
<path d="M95.6922 75.7638V71.9416H96.3337V75.2305H97.9936V75.7638H95.6922Z" fill="white"/>
<path d="M99.7765 73.6854L100.704 71.9416H101.396L100.097 74.2788V75.7638H99.4584V74.3024L98.1566 71.9416H98.8543L99.7765 73.6854Z" fill="white"/>
<path d="M84.9568 66.8441C84.9568 67.4779 84.9067 68.0455 84.8064 68.5468C84.7097 69.0445 84.5557 69.467 84.3445 69.8143C84.1332 70.1617 83.8575 70.4266 83.5173 70.6093C83.1772 70.7919 82.7654 70.8832 82.282 70.8832C81.6768 70.8832 81.1773 70.7238 80.7834 70.4052C80.3896 70.0829 80.0977 69.621 79.908 69.0194C79.7182 68.4143 79.6233 67.6892 79.6233 66.8441C79.6233 65.9991 79.7092 65.2758 79.8811 64.6742C80.0566 64.0691 80.3394 63.6053 80.7297 63.2831C81.12 62.9608 81.6375 62.7997 82.282 62.7997C82.8907 62.7997 83.392 62.9608 83.7859 63.2831C84.1833 63.6018 84.477 64.0637 84.6667 64.6688C84.8601 65.2704 84.9568 65.9955 84.9568 66.8441ZM80.8962 66.8441C80.8962 67.5066 80.9392 68.0598 81.0251 68.5038C81.1147 68.9478 81.2615 69.2808 81.4656 69.5028C81.6697 69.7212 81.9418 69.8304 82.282 69.8304C82.6222 69.8304 82.8943 69.7212 83.0984 69.5028C83.3025 69.2844 83.4493 68.9532 83.5388 68.5092C83.6319 68.0651 83.6785 67.5101 83.6785 66.8441C83.6785 66.1853 83.6337 65.6338 83.5442 65.1898C83.4547 64.7458 83.3079 64.4128 83.1038 64.1908C82.8997 63.9652 82.6257 63.8524 82.282 63.8524C81.9382 63.8524 81.6643 63.9652 81.4602 64.1908C81.2597 64.4128 81.1147 64.7458 81.0251 65.1898C80.9392 65.6338 80.8962 66.1853 80.8962 66.8441Z" fill="white"/>
</svg>
