<svg width="149" height="33" viewBox="0 0 149 33" fill="none" xmlns="http://www.w3.org/2000/svg">
<path d="M5.49632 0.329102L7.87934 10.5746L11.1874 0.329102H15.0784L18.2403 10.3708L20.4786 0.329102H26.0236L20.4299 18.2591H15.8573L12.9874 8.11612L10.0689 18.2591H5.59368L0 0.329102H5.49632Z" fill="white"/>
<path d="M26.2794 3.91563V0.329102H31.1441V3.91563H26.2794ZM31.1441 5.19615V18.2604H26.2794V5.19615H31.1441Z" fill="white"/>
<path d="M40.6288 4.99109L42.0394 5.29873V10.012H41.3092C39.428 10.012 38.1959 10.5589 37.6129 11.6514C37.2559 12.1891 37.0774 13.1462 37.0774 14.5201V18.2604H32.3588V5.19618H36.98V7.85978L37.7103 6.57926C38.488 5.52092 39.4617 4.99109 40.6288 4.99109Z" fill="white"/>
<path d="M48.9475 4.76096C52.3604 4.76096 54.5337 6.62259 55.4662 10.3445C55.6285 11.0532 55.7096 11.9287 55.7096 12.97V13.2132H46.7592V13.2645C47.0264 13.9823 47.4158 14.4727 47.9264 14.737C48.4045 15.0012 48.8589 15.134 49.2883 15.134H49.4581C50.0248 15.134 50.5691 14.7922 51.0871 14.1098H55.465V14.1611C53.8521 17.1495 51.8087 18.6443 49.3358 18.6443C47.0326 18.6443 45.2663 17.9251 44.0342 16.4855C42.8021 15.0472 42.1854 13.4775 42.1854 11.7789C42.1854 9.80681 42.8333 8.15291 44.1315 6.81585C45.4285 5.4801 47.0339 4.79383 48.9475 4.75964V4.76096ZM46.7106 10.192H51.1858V10.1539C51.1858 9.79498 50.9423 9.40714 50.4555 8.98906C50.0098 8.74978 49.5555 8.63014 49.0936 8.63014C47.7716 8.63014 46.9777 9.15077 46.7106 10.192Z" fill="white"/>
<path d="M56.4374 18.2591V0.329102H61.302V18.2591H56.4374Z" fill="white"/>
<path d="M68.8668 4.76096C72.2797 4.76096 74.453 6.62259 75.3855 10.3445C75.5478 11.0532 75.6289 11.9287 75.6289 12.97V13.2132H66.6786V13.2645C66.9457 13.9823 67.3352 14.4727 67.8457 14.737C68.3238 15.0012 68.7782 15.134 69.2076 15.134H69.3774C69.9441 15.134 70.4884 14.7922 71.0064 14.1098H75.3843V14.1611C73.7715 17.1495 71.728 18.6443 69.2551 18.6443C66.9519 18.6443 65.1856 17.9251 63.9535 16.4855C62.7214 15.0472 62.1047 13.4775 62.1047 11.7789C62.1047 9.80681 62.7526 8.15291 64.0508 6.81585C65.3478 5.4801 66.9532 4.79383 68.8668 4.75964V4.76096ZM66.6299 10.192H71.1051V10.1539C71.1051 9.79498 70.8616 9.40714 70.3748 8.98906C69.9292 8.74978 69.4748 8.63014 69.0129 8.63014C67.6909 8.63014 66.897 9.15077 66.6299 10.192Z" fill="white"/>
<path d="M81.1615 4.60715H81.7332C83.4846 4.60715 85.2634 5.11989 87.0723 6.14404C87.0723 6.2295 86.5417 7.25366 85.4794 9.21783L83.8129 8.73139C83.019 8.49211 82.3499 8.37247 81.8069 8.37247H81.5035C81.0092 8.37247 80.7171 8.59466 80.6285 9.03903C80.6285 9.32038 81.2763 9.61093 82.5746 9.90937C84.4233 10.4392 85.6467 10.994 86.2471 11.5738C87.0011 12.2653 87.3781 13.1869 87.3781 14.3399C87.3781 16.7222 86.0436 18.2078 83.3772 18.7968C82.7855 18.8652 82.3074 18.8993 81.9429 18.8993H81.5784C79.284 18.8993 77.1806 18.2328 75.267 16.901V16.8497C76.4179 14.946 77.0183 13.9889 77.067 13.981H77.1157C78.4851 14.7501 79.8645 15.134 81.2501 15.134H81.5547C82.2762 15.134 82.637 14.9631 82.637 14.6213C82.637 14.1427 81.7819 13.7339 80.0717 13.392C78.1905 12.8622 76.9659 12.1194 76.3992 11.1636C76.0584 10.5312 75.8886 9.86598 75.8886 9.16524C75.8886 6.85136 77.2218 5.36574 79.8895 4.70838C80.4 4.64002 80.8257 4.60583 81.1665 4.60583L81.1615 4.60715Z" fill="white"/>
<path d="M93.0903 4.60715H93.6621C95.4134 4.60715 97.1923 5.11989 99.0011 6.14404C99.0011 6.2295 98.4706 7.25366 97.4082 9.21783L95.7417 8.73139C94.9478 8.49211 94.2787 8.37247 93.7357 8.37247H93.4324C92.938 8.37247 92.6459 8.59466 92.5573 9.03903C92.5573 9.32038 93.2052 9.61093 94.5034 9.90937C96.3522 10.4392 97.5755 10.994 98.1759 11.5738C98.9299 12.2653 99.3069 13.1869 99.3069 14.3399C99.3069 16.7222 97.9737 18.2078 95.3061 18.7968C94.7144 18.8652 94.2363 18.8993 93.8718 18.8993H93.5073C91.2129 18.8993 89.1095 18.2328 87.1958 16.901V16.8497C88.3467 14.946 88.9472 13.9889 88.9959 13.981H89.0445C90.4139 14.7501 91.7933 15.134 93.179 15.134H93.4835C94.2051 15.134 94.5658 14.9631 94.5658 14.6213C94.5658 14.1427 93.7107 13.7339 91.9993 13.392C90.1181 12.8622 88.8948 12.1194 88.3268 11.1636C87.986 10.5312 87.8162 9.86598 87.8162 9.16524C87.8162 6.85136 89.1494 5.36574 91.8171 4.70838C92.3276 4.64002 92.7533 4.60583 93.0941 4.60583L93.0903 4.60715Z" fill="white"/>
<path d="M105.457 9.2941V18.2591H100.593V0.329102H105.457L110.322 9.2941V0.329102H115.187V18.2591H110.322L105.457 9.2941Z" fill="white"/>
<path d="M123.212 4.50458C125.757 4.50458 127.817 5.66546 129.39 7.98855C130.005 9.15864 130.314 10.2683 130.314 11.3187V12.0365C130.314 13.889 129.519 15.5797 127.931 17.1087C126.528 18.3038 124.907 18.9019 123.066 18.9019C120.488 18.9019 118.445 17.7752 116.937 15.5205C116.255 14.3846 115.916 13.1554 115.916 11.8314V11.6264C115.916 9.03112 117.115 6.9644 119.516 5.4275C120.659 4.81222 121.891 4.50589 123.212 4.50589V4.50458ZM121.12 11.4213V12.0878C121.12 13.6497 121.591 14.5384 122.531 14.7514L123.212 14.8027C124.071 14.8027 124.623 14.4438 124.866 13.7273C125.061 13.112 125.158 12.4296 125.158 11.6776C125.158 9.628 124.493 8.60384 123.163 8.60384H123.017C122.231 8.60384 121.695 8.97984 121.412 9.73054C121.217 10.2341 121.12 10.7981 121.12 11.4213Z" fill="white"/>
<path d="M137.417 5.19617H141.028L142.974 11.7408L144.641 5.19617H148.8L145.006 18.2604H141.213L139.182 12.4967L137.138 18.2604H133.393L129.648 5.19617H133.905L135.572 11.6514L137.42 5.19617H137.417Z" fill="white"/>
<path d="M132.579 31.297H132.553C132.365 31.297 132.212 31.1287 132.212 30.9223V24.9825C132.212 24.7761 132.365 24.6078 132.553 24.6078H132.579C132.768 24.6078 132.92 24.7761 132.92 24.9825V30.9223C132.92 31.1287 132.768 31.297 132.579 31.297Z" fill="white"/>
<path d="M132.579 31.3496H132.553C132.337 31.3496 132.161 31.1577 132.161 30.9224V24.9825C132.161 24.7472 132.337 24.5552 132.553 24.5552H132.579C132.795 24.5552 132.971 24.7472 132.971 24.9825V30.9224C132.971 31.1577 132.795 31.3496 132.579 31.3496ZM132.553 24.6604C132.393 24.6604 132.262 24.805 132.262 24.9812V30.9211C132.262 31.0985 132.392 31.2418 132.553 31.2418H132.579C132.739 31.2418 132.87 31.0972 132.87 30.9211V24.9812C132.87 24.8037 132.74 24.6604 132.579 24.6604H132.553Z" fill="white"/>
<path d="M139.386 24.4908H135.635C134.653 24.4908 133.855 25.3323 133.855 26.3656V27.2162C133.846 27.2412 133.841 27.2675 133.841 27.2964V31.0802C133.841 31.2432 134.005 31.372 134.213 31.372H134.238C134.447 31.372 134.61 31.2445 134.61 31.0802V29.8062H139.388C140.37 29.8062 141.168 28.9648 141.168 27.9314V26.3669C141.168 25.3323 140.369 24.4922 139.388 24.4922L139.386 24.4908ZM140.358 27.9301C140.358 28.4941 139.922 28.953 139.386 28.953H134.664V26.3656C134.664 25.8016 135.1 25.3428 135.635 25.3428H139.386C139.922 25.3428 140.358 25.8016 140.358 26.3656V27.9301Z" fill="white"/>
<path d="M148.186 31.3391H144.2C142.985 31.3391 142.002 30.2926 142.002 29.0016V26.9243C142.002 25.6333 142.987 24.5868 144.2 24.5868H148.196C148.389 24.5868 148.545 24.7524 148.545 24.9575V24.9681C148.545 25.1732 148.389 25.3388 148.196 25.3388H144.2C143.376 25.3388 142.709 26.0487 142.709 26.9243V29.0016C142.709 29.8772 143.377 30.5871 144.2 30.5871H148.186C148.379 30.5871 148.535 30.7528 148.535 30.9579C148.535 30.9618 148.535 30.9644 148.535 30.9684C148.535 31.1735 148.379 31.3391 148.186 31.3391Z" fill="white"/>
<path d="M148.186 31.3917H144.2C142.96 31.3917 141.951 30.3189 141.951 29.0002V26.923C141.951 25.6044 142.959 24.5316 144.2 24.5316H148.196C148.417 24.5316 148.595 24.7222 148.595 24.9562V24.9667C148.595 25.2007 148.416 25.3914 148.196 25.3914H144.2C143.406 25.3914 142.759 26.079 142.759 26.923V29.0002C142.759 29.8443 143.406 30.5319 144.2 30.5319H148.186C148.293 30.5319 148.393 30.5766 148.469 30.6568C148.544 30.737 148.587 30.8435 148.587 30.9565V30.9671C148.587 31.2011 148.407 31.3917 148.187 31.3917H148.186ZM144.2 24.6394C143.015 24.6394 142.052 25.6635 142.052 26.9243V29.0016C142.052 30.2611 143.015 31.2865 144.2 31.2865H148.186C148.351 31.2865 148.484 31.1445 148.484 30.9684V30.9578C148.484 30.8724 148.453 30.7922 148.397 30.733C148.341 30.6726 148.266 30.6397 148.186 30.6397H144.2C143.35 30.6397 142.658 29.9048 142.658 29.0016V26.9243C142.658 26.0211 143.35 25.2862 144.2 25.2862H148.196C148.361 25.2862 148.494 25.1429 148.494 24.968V24.9575C148.494 24.7827 148.361 24.6394 148.196 24.6394H144.2Z" fill="white"/>
<path d="M93.5597 26.2118C93.5597 26.5208 93.511 26.8008 93.4149 27.0493C93.3175 27.2978 93.179 27.5107 92.9992 27.6856C92.8195 27.8605 92.5985 27.9972 92.3364 28.0918C92.0742 28.1878 91.7621 28.2352 91.3989 28.2352H90.731V30.4649C90.731 30.4899 90.7235 30.5122 90.7111 30.5319C90.6973 30.5504 90.6761 30.5661 90.6474 30.5766C90.6187 30.5885 90.5787 30.5977 90.5288 30.6056C90.4789 30.6135 90.4165 30.6174 90.3403 30.6174C90.2642 30.6174 90.2017 30.6135 90.1518 30.6056C90.1019 30.5977 90.0619 30.5885 90.032 30.5766C90.002 30.5661 89.9808 30.5504 89.9683 30.5319C89.9558 30.5122 89.9496 30.4899 89.9496 30.4649V24.7538C89.9496 24.6263 89.9808 24.5356 90.0445 24.4817C90.1081 24.4278 90.1793 24.4001 90.2579 24.4001H91.5162C91.6435 24.4001 91.7646 24.4054 91.882 24.4172C91.9981 24.4278 92.1366 24.4527 92.2952 24.4895C92.4537 24.5264 92.616 24.5947 92.7808 24.6946C92.9455 24.7946 93.0853 24.9181 93.2014 25.0654C93.3163 25.2126 93.4049 25.3822 93.4673 25.5742C93.5297 25.7674 93.5597 25.9804 93.5597 26.2131V26.2118ZM92.7371 26.2789C92.7371 26.0264 92.6921 25.8161 92.6035 25.6478C92.5136 25.4782 92.4038 25.3533 92.2714 25.2705C92.1391 25.1877 92.0031 25.1351 91.862 25.1127C91.7209 25.0904 91.5836 25.0799 91.4513 25.0799H90.7298V27.562H91.4338C91.6698 27.562 91.8657 27.5305 92.0218 27.466C92.1778 27.4016 92.3089 27.3135 92.415 27.2005C92.5211 27.0874 92.601 26.952 92.6559 26.7942C92.7108 26.6365 92.7371 26.4642 92.7371 26.2802V26.2789Z" fill="white"/>
<path d="M97.8177 28.268C97.8177 28.619 97.774 28.9411 97.6853 29.2369C97.5979 29.5314 97.4669 29.7865 97.2921 29.9995C97.1174 30.2138 96.9001 30.3794 96.638 30.4991C96.3759 30.6187 96.0725 30.6792 95.7267 30.6792C95.3809 30.6792 95.0976 30.6266 94.8479 30.5214C94.5983 30.4162 94.3898 30.2624 94.2238 30.0626C94.0577 29.8614 93.9329 29.6182 93.8518 29.3303C93.7706 29.0437 93.7294 28.7176 93.7294 28.3548C93.7294 27.9919 93.7719 27.6816 93.8593 27.3858C93.9466 27.09 94.0752 26.8363 94.25 26.6233C94.4235 26.4103 94.6407 26.2433 94.9016 26.1263C95.1625 26.008 95.4658 25.9489 95.8141 25.9489C96.1624 25.9489 96.4433 26.0014 96.6929 26.1066C96.9426 26.2118 97.1511 26.3656 97.3171 26.5655C97.4831 26.7666 97.6079 27.0098 97.6916 27.2977C97.7752 27.5844 97.8164 27.9091 97.8164 28.2693L97.8177 28.268ZM97.0412 28.3206C97.0412 28.0879 97.0212 27.8683 96.9788 27.6606C96.9376 27.4529 96.8702 27.2715 96.7753 27.115C96.6804 26.9585 96.5519 26.835 96.3908 26.7443C96.2286 26.6535 96.0276 26.6075 95.7854 26.6075C95.562 26.6075 95.371 26.6496 95.2099 26.7324C95.0489 26.8152 94.9178 26.9323 94.813 27.0834C94.7094 27.2346 94.632 27.4148 94.582 27.6212C94.5321 27.8289 94.5059 28.055 94.5059 28.3009C94.5059 28.5467 94.5259 28.7584 94.5683 28.9661C94.6095 29.1738 94.6781 29.3539 94.7743 29.5091C94.8704 29.6642 94.999 29.7865 95.1612 29.8772C95.3235 29.9679 95.5245 30.0139 95.7667 30.0139C95.9864 30.0139 96.1774 29.9719 96.3397 29.889C96.5019 29.8062 96.6343 29.6892 96.7379 29.5393C96.8415 29.3894 96.9176 29.2106 96.9676 29.0029C97.0162 28.7952 97.0412 28.5678 97.0412 28.3193V28.3206Z" fill="white"/>
<path d="M104.139 26.1539C104.139 26.1763 104.135 26.2039 104.13 26.2355C104.124 26.267 104.114 26.3078 104.099 26.3551L102.896 30.4452C102.887 30.4807 102.872 30.5096 102.852 30.5319C102.832 30.5543 102.805 30.5714 102.771 30.5845C102.736 30.5977 102.689 30.6055 102.627 30.6108C102.566 30.6161 102.491 30.6174 102.4 30.6174C102.309 30.6174 102.228 30.6134 102.164 30.6082C102.101 30.6016 102.049 30.5924 102.012 30.5793C101.975 30.5661 101.946 30.549 101.928 30.5267C101.911 30.5043 101.897 30.4767 101.887 30.4452L101.028 27.3214L101.02 27.278L101.011 27.3214L100.216 30.4452C100.207 30.4807 100.192 30.5096 100.172 30.5319C100.152 30.5543 100.123 30.5714 100.083 30.5845C100.043 30.5977 99.9935 30.6055 99.9311 30.6108C99.8687 30.6161 99.7925 30.6174 99.7014 30.6174C99.6102 30.6174 99.5304 30.6134 99.4717 30.6082C99.413 30.6016 99.3643 30.5924 99.3269 30.5793C99.2894 30.5661 99.2607 30.549 99.2432 30.5267C99.2245 30.5043 99.212 30.4767 99.2021 30.4452L98.0074 26.3551C97.9924 26.3078 97.9812 26.267 97.9762 26.2355C97.97 26.2039 97.9675 26.1763 97.9675 26.1539C97.9675 26.125 97.9737 26.1027 97.9862 26.0843C97.9987 26.0672 98.0187 26.0527 98.0474 26.0409C98.0761 26.0291 98.1148 26.0225 98.1635 26.0198C98.2121 26.0172 98.2708 26.0146 98.3407 26.0146C98.4256 26.0146 98.493 26.0172 98.5454 26.0212C98.5966 26.0264 98.6366 26.0343 98.664 26.0448C98.6915 26.0553 98.7115 26.0724 98.7227 26.0922C98.7352 26.1132 98.7452 26.1369 98.7539 26.1658L99.7401 29.7155L99.7488 29.7589L99.7576 29.7155L100.661 26.1658C100.668 26.1369 100.678 26.1119 100.691 26.0922C100.705 26.0711 100.725 26.0553 100.752 26.0448C100.78 26.0343 100.817 26.0251 100.864 26.0212C100.911 26.0159 100.972 26.0146 101.047 26.0146C101.122 26.0146 101.179 26.0172 101.227 26.0212C101.274 26.0264 101.31 26.0343 101.338 26.0448C101.365 26.0553 101.385 26.0711 101.397 26.0908C101.409 26.1106 101.418 26.1329 101.424 26.1579L102.4 29.7168L102.409 29.7602L102.414 29.7168L103.386 26.1671C103.393 26.1382 103.403 26.1132 103.416 26.0935C103.43 26.0724 103.451 26.0567 103.48 26.0461C103.509 26.0356 103.549 26.0264 103.599 26.0225C103.649 26.0172 103.713 26.0159 103.792 26.0159C103.864 26.0159 103.923 26.0172 103.967 26.0212C104.011 26.0251 104.046 26.0317 104.072 26.0448C104.098 26.058 104.115 26.0724 104.127 26.0882C104.137 26.104 104.143 26.1263 104.143 26.1553L104.139 26.1539Z" fill="white"/>
<path d="M108.011 28.1299C108.011 28.2548 107.981 28.3429 107.923 28.3955C107.863 28.4481 107.795 28.4744 107.719 28.4744H105.027C105.027 28.7137 105.049 28.9293 105.095 29.1199C105.142 29.3118 105.218 29.4762 105.324 29.6129C105.43 29.7496 105.568 29.8548 105.739 29.9284C105.909 30.0021 106.118 30.0389 106.365 30.0389C106.56 30.0389 106.733 30.0218 106.885 29.9889C107.038 29.9561 107.169 29.9179 107.28 29.8772C107.391 29.8351 107.482 29.7983 107.553 29.7641C107.624 29.7312 107.679 29.7141 107.716 29.7141C107.737 29.7141 107.755 29.7194 107.773 29.7312C107.789 29.7431 107.803 29.7589 107.812 29.7812C107.82 29.8036 107.828 29.8351 107.832 29.8745C107.837 29.914 107.838 29.9626 107.838 30.0205C107.838 30.0625 107.837 30.098 107.833 30.1283C107.829 30.1585 107.827 30.1861 107.822 30.2098C107.817 30.2335 107.809 30.2545 107.799 30.2742C107.789 30.2939 107.775 30.311 107.758 30.3294C107.742 30.3465 107.692 30.3754 107.611 30.4149C107.53 30.4543 107.423 30.4938 107.292 30.5319C107.163 30.57 107.011 30.6042 106.84 30.6344C106.669 30.6647 106.487 30.6805 106.294 30.6805C105.958 30.6805 105.663 30.6305 105.41 30.5319C105.156 30.4333 104.944 30.286 104.772 30.0915C104.6 29.8969 104.469 29.6537 104.381 29.3592C104.294 29.066 104.249 28.7242 104.249 28.335C104.249 27.9459 104.294 27.633 104.385 27.3372C104.476 27.0427 104.607 26.7916 104.778 26.5865C104.949 26.3814 105.156 26.2236 105.399 26.1132C105.641 26.0027 105.912 25.9475 106.211 25.9475C106.532 25.9475 106.806 26.0014 107.031 26.1105C107.257 26.2183 107.442 26.3643 107.588 26.5483C107.734 26.7311 107.84 26.9467 107.909 27.1939C107.978 27.441 108.011 27.7053 108.011 27.9853V28.1286V28.1299ZM107.257 27.8959C107.266 27.4818 107.179 27.1557 106.995 26.9204C106.81 26.6851 106.537 26.5667 106.175 26.5667C105.989 26.5667 105.827 26.6035 105.686 26.6772C105.545 26.7508 105.429 26.8481 105.334 26.969C105.239 27.09 105.166 27.2307 105.114 27.3924C105.063 27.5541 105.033 27.7224 105.027 27.8972H107.257V27.8959Z" fill="white"/>
<path d="M111.076 26.4458C111.076 26.5155 111.075 26.5747 111.071 26.6233C111.067 26.6706 111.062 26.7088 111.052 26.7351C111.044 26.7627 111.032 26.7824 111.019 26.7968C111.005 26.8113 110.986 26.8179 110.962 26.8179C110.939 26.8179 110.909 26.81 110.874 26.7968C110.839 26.7824 110.8 26.7679 110.755 26.7535C110.711 26.739 110.662 26.7258 110.608 26.7127C110.553 26.6996 110.494 26.693 110.431 26.693C110.354 26.693 110.281 26.7088 110.208 26.7403C110.136 26.7719 110.059 26.8245 109.979 26.8981C109.899 26.9717 109.814 27.069 109.727 27.1899C109.639 27.3109 109.542 27.4595 109.436 27.6343V30.4662C109.436 30.4912 109.429 30.5135 109.417 30.5306C109.405 30.5477 109.386 30.5635 109.358 30.5766C109.331 30.5898 109.293 30.599 109.245 30.6056C109.196 30.6121 109.134 30.6148 109.059 30.6148C108.984 30.6148 108.925 30.6108 108.876 30.6056C108.828 30.599 108.789 30.5898 108.76 30.5766C108.732 30.5635 108.712 30.549 108.702 30.5306C108.692 30.5135 108.685 30.4912 108.685 30.4662V26.1605C108.685 26.1355 108.69 26.1132 108.699 26.0961C108.708 26.079 108.727 26.0632 108.754 26.0488C108.782 26.0343 108.817 26.0251 108.859 26.0199C108.901 26.0146 108.958 26.0133 109.028 26.0133C109.097 26.0133 109.15 26.0159 109.194 26.0199C109.237 26.0251 109.271 26.0343 109.296 26.0488C109.32 26.0632 109.337 26.079 109.348 26.0961C109.358 26.1132 109.365 26.1355 109.365 26.1605V26.7876C109.477 26.6154 109.582 26.4747 109.68 26.3669C109.779 26.2591 109.871 26.1737 109.96 26.1106C110.047 26.0488 110.135 26.0054 110.221 25.9817C110.307 25.9581 110.394 25.9462 110.482 25.9462C110.521 25.9462 110.565 25.9489 110.615 25.9528C110.665 25.9581 110.718 25.9659 110.773 25.9791C110.828 25.9922 110.876 26.0067 110.92 26.0225C110.964 26.0383 110.995 26.054 111.014 26.0698C111.032 26.0856 111.044 26.1014 111.05 26.1158C111.056 26.1303 111.061 26.1487 111.066 26.171C111.071 26.1934 111.074 26.2263 111.075 26.2683C111.076 26.3104 111.077 26.3696 111.077 26.4432L111.076 26.4458Z" fill="white"/>
<path d="M114.83 28.1299C114.83 28.2548 114.8 28.3429 114.741 28.3955C114.681 28.4481 114.614 28.4744 114.538 28.4744H111.845C111.845 28.7137 111.867 28.9293 111.914 29.1199C111.96 29.3118 112.036 29.4762 112.142 29.6129C112.248 29.7496 112.387 29.8548 112.558 29.9284C112.728 30.0021 112.936 30.0389 113.183 30.0389C113.378 30.0389 113.551 30.0218 113.704 29.9889C113.856 29.9561 113.987 29.9179 114.098 29.8772C114.209 29.8351 114.3 29.7983 114.372 29.7641C114.443 29.7312 114.498 29.7141 114.534 29.7141C114.555 29.7141 114.574 29.7194 114.591 29.7312C114.607 29.7431 114.621 29.7589 114.63 29.7812C114.639 29.8036 114.646 29.8351 114.65 29.8745C114.655 29.914 114.656 29.9626 114.656 30.0205C114.656 30.0625 114.655 30.098 114.651 30.1283C114.647 30.1585 114.645 30.1861 114.64 30.2098C114.635 30.2335 114.627 30.2545 114.617 30.2742C114.607 30.2939 114.594 30.311 114.576 30.3294C114.56 30.3465 114.51 30.3754 114.429 30.4149C114.348 30.4543 114.242 30.4938 114.111 30.5319C113.981 30.57 113.83 30.6042 113.659 30.6344C113.488 30.6647 113.305 30.6805 113.112 30.6805C112.776 30.6805 112.482 30.6305 112.228 30.5319C111.975 30.4333 111.763 30.286 111.59 30.0915C111.418 29.8969 111.287 29.6537 111.2 29.3592C111.112 29.0647 111.067 28.7242 111.067 28.335C111.067 27.9459 111.112 27.633 111.203 27.3372C111.294 27.0427 111.426 26.7916 111.597 26.5865C111.768 26.3814 111.975 26.2236 112.217 26.1132C112.459 26.0027 112.73 25.9475 113.03 25.9475C113.35 25.9475 113.624 26.0014 113.85 26.1105C114.076 26.2183 114.26 26.3643 114.406 26.5483C114.553 26.7311 114.659 26.9467 114.727 27.1939C114.796 27.441 114.83 27.7053 114.83 27.9853V28.1286V28.1299ZM114.076 27.8959C114.084 27.4818 113.997 27.1557 113.814 26.9204C113.629 26.6851 113.355 26.5667 112.993 26.5667C112.807 26.5667 112.645 26.6035 112.504 26.6772C112.363 26.7508 112.247 26.8481 112.152 26.969C112.057 27.09 111.985 27.2307 111.932 27.3924C111.881 27.5541 111.851 27.7224 111.845 27.8972H114.076V27.8959Z" fill="white"/>
<path d="M119.006 30.4688C119.006 30.4937 119.001 30.5161 118.99 30.5358C118.979 30.5555 118.962 30.57 118.935 30.5818C118.909 30.5924 118.875 30.6016 118.833 30.6081C118.791 30.6147 118.739 30.6173 118.678 30.6173C118.615 30.6173 118.562 30.6134 118.52 30.6081C118.477 30.6016 118.442 30.5924 118.415 30.5818C118.387 30.5713 118.367 30.5555 118.356 30.5358C118.344 30.5161 118.337 30.4937 118.337 30.4688V29.8995C118.123 30.1454 117.899 30.336 117.667 30.474C117.435 30.6108 117.181 30.6804 116.907 30.6804C116.607 30.6804 116.351 30.6186 116.139 30.4964C115.927 30.3741 115.756 30.2085 115.624 29.9994C115.491 29.7904 115.395 29.5445 115.335 29.2632C115.274 28.9805 115.244 28.6834 115.244 28.3705C115.244 28.0011 115.282 27.6671 115.358 27.3687C115.434 27.0702 115.545 26.8165 115.693 26.6062C115.842 26.3958 116.026 26.2341 116.245 26.121C116.465 26.008 116.718 25.9514 117.005 25.9514C117.245 25.9514 117.464 26.0066 117.662 26.1171C117.861 26.2275 118.057 26.3892 118.25 26.6022V24.1003C118.25 24.078 118.255 24.0569 118.266 24.0359C118.276 24.0149 118.297 23.9991 118.327 23.9886C118.357 23.9781 118.396 23.9675 118.444 23.9596C118.491 23.9518 118.55 23.9478 118.623 23.9478C118.697 23.9478 118.761 23.9518 118.809 23.9596C118.858 23.9675 118.895 23.9767 118.923 23.9886C118.95 24.0004 118.97 24.0162 118.984 24.0359C118.998 24.0569 119.004 24.078 119.004 24.1003V30.4727L119.006 30.4688ZM118.253 27.441C118.049 27.1767 117.853 26.9743 117.665 26.8362C117.475 26.6969 117.278 26.6285 117.072 26.6285C116.881 26.6285 116.718 26.6758 116.586 26.7718C116.452 26.8678 116.344 26.994 116.261 27.1491C116.178 27.3056 116.118 27.4818 116.079 27.6803C116.041 27.8788 116.023 28.0786 116.023 28.2824C116.023 28.4993 116.039 28.711 116.07 28.9187C116.102 29.1265 116.158 29.3105 116.236 29.4709C116.315 29.6313 116.42 29.7615 116.55 29.8587C116.68 29.956 116.843 30.0047 117.04 30.0047C117.14 30.0047 117.236 29.9902 117.329 29.9613C117.421 29.9324 117.516 29.885 117.612 29.818C117.709 29.7509 117.811 29.6642 117.917 29.5577C118.023 29.4512 118.135 29.3197 118.253 29.1633V27.441Z" fill="white"/>
<path d="M125.325 28.2588C125.325 28.6322 125.287 28.9674 125.209 29.2659C125.132 29.5643 125.018 29.818 124.869 30.0284C124.719 30.2387 124.535 30.4004 124.317 30.5122C124.098 30.6239 123.849 30.6792 123.568 30.6792C123.438 30.6792 123.317 30.666 123.207 30.6384C123.096 30.6108 122.989 30.5674 122.883 30.5069C122.776 30.4465 122.67 30.3702 122.564 30.2769C122.458 30.1848 122.346 30.0731 122.228 29.9416V30.4675C122.228 30.4925 122.222 30.5148 122.21 30.5345C122.197 30.5543 122.178 30.5687 122.151 30.5806C122.124 30.5911 122.09 30.6003 122.049 30.6069C122.007 30.6134 121.955 30.6161 121.891 30.6161C121.828 30.6161 121.779 30.6121 121.737 30.6069C121.694 30.6003 121.659 30.5911 121.632 30.5806C121.604 30.57 121.587 30.5543 121.577 30.5345C121.568 30.5148 121.563 30.4925 121.563 30.4675V24.0767C121.563 24.0517 121.568 24.0294 121.579 24.0096C121.589 23.9899 121.609 23.9742 121.638 23.9623C121.667 23.9492 121.705 23.94 121.754 23.9334C121.803 23.9268 121.863 23.9242 121.936 23.9242C122.01 23.9242 122.074 23.9268 122.122 23.9334C122.171 23.94 122.208 23.9492 122.236 23.9623C122.263 23.9755 122.283 23.9912 122.295 24.0096C122.307 24.0294 122.313 24.0517 122.313 24.0767V26.6548C122.434 26.5247 122.552 26.4143 122.665 26.3249C122.779 26.2355 122.89 26.1631 122.999 26.1066C123.107 26.0514 123.217 26.0106 123.326 25.9843C123.434 25.9594 123.549 25.9462 123.67 25.9462C123.967 25.9462 124.221 26.008 124.43 26.1329C124.64 26.2578 124.812 26.4235 124.943 26.6325C125.076 26.8415 125.172 27.0861 125.232 27.3674C125.292 27.6474 125.323 27.9446 125.323 28.2575L125.325 28.2588ZM124.549 28.3495C124.549 28.1299 124.533 27.9156 124.502 27.7092C124.47 27.5028 124.414 27.3188 124.334 27.1597C124.256 27.0006 124.15 26.8718 124.018 26.7745C123.887 26.6772 123.724 26.6285 123.529 26.6285C123.432 26.6285 123.336 26.643 123.241 26.6719C123.146 26.7009 123.05 26.7482 122.952 26.8152C122.855 26.8823 122.754 26.9691 122.649 27.0742C122.544 27.1794 122.432 27.3122 122.313 27.4713V29.1883C122.521 29.4525 122.719 29.655 122.907 29.7931C123.096 29.9324 123.293 30.0008 123.497 30.0008C123.685 30.0008 123.847 29.9534 123.981 29.8575C124.115 29.7615 124.224 29.6353 124.308 29.4775C124.392 29.3198 124.453 29.1423 124.49 28.9464C124.528 28.7505 124.548 28.552 124.548 28.3508L124.549 28.3495Z" fill="white"/>
<path d="M127.803 30.5885L127.258 32.1714C127.24 32.2226 127.193 32.2621 127.119 32.2884C127.044 32.316 126.932 32.3291 126.781 32.3291C126.702 32.3291 126.639 32.3252 126.59 32.3173C126.541 32.3094 126.504 32.2963 126.479 32.2765C126.453 32.2568 126.439 32.2318 126.435 32.2003C126.433 32.1687 126.44 32.1306 126.458 32.0859L127.021 30.5885C126.993 30.5753 126.967 30.5556 126.943 30.5267C126.92 30.4977 126.902 30.4675 126.893 30.436L125.435 26.3222C125.412 26.2552 125.399 26.2026 125.399 26.1645C125.399 26.1263 125.412 26.0961 125.435 26.0738C125.459 26.0514 125.499 26.0369 125.554 26.0277C125.609 26.0198 125.681 26.0159 125.772 26.0159C125.863 26.0159 125.935 26.0185 125.986 26.0225C126.037 26.0277 126.078 26.0356 126.108 26.0488C126.138 26.0619 126.161 26.0803 126.174 26.104C126.188 26.1277 126.202 26.1605 126.218 26.2013L127.385 29.655H127.399L128.525 26.1816C128.542 26.1211 128.565 26.0816 128.591 26.0645C128.617 26.0475 128.655 26.0343 128.707 26.0264C128.758 26.0185 128.833 26.0146 128.929 26.0146C129.014 26.0146 129.084 26.0185 129.138 26.0264C129.193 26.0343 129.233 26.0501 129.258 26.0724C129.284 26.0948 129.296 26.125 129.296 26.1632C129.296 26.2013 129.288 26.2486 129.269 26.3065L127.802 30.5885H127.803Z" fill="white"/>
</svg>
