<svg width="155" height="199" viewBox="0 0 155 199" fill="none" xmlns="http://www.w3.org/2000/svg">
<g filter="url(#filter0_d_1807_20813)">
<path fill-rule="evenodd" clip-rule="evenodd" d="M149.354 96.8874C151.11 89.2224 151.987 80.5373 151.987 70.832C151.987 57.7078 150.232 46.5137 146.721 37.2496C143.211 27.9303 137.789 20.8168 130.454 15.909C123.183 10.9461 113.811 8.4646 102.339 8.4646C90.1156 8.4646 80.3679 10.9461 73.0963 15.909C65.8246 20.8719 60.5903 28.013 57.3933 37.3323C54.259 46.5964 52.6918 57.763 52.6918 70.832C52.6918 83.7908 54.4157 94.9022 57.8635 104.166C61.3739 113.375 66.7963 120.461 74.1306 125.424C81.4649 130.332 90.8679 132.786 102.339 132.786C111.554 132.786 119.327 131.38 125.659 128.567C131.99 125.755 137.068 121.674 140.892 116.326C144.778 110.977 147.599 104.497 149.354 96.8874ZM90.5858 90.6837C89.9589 85.3348 89.6455 78.7176 89.6455 70.832C89.6455 62.8362 89.9589 56.1638 90.5858 50.8149C91.2753 45.466 92.5291 41.4405 94.347 38.7384C96.2275 35.9813 98.8917 34.6027 102.339 34.6027C105.787 34.6027 108.42 35.9813 110.238 38.7384C112.056 41.4405 113.31 45.466 113.999 50.8149C114.689 56.1638 115.033 62.8362 115.033 70.832C115.033 78.7727 114.689 85.4175 113.999 90.7664C113.31 96.0602 112.056 100.058 110.238 102.76C108.42 105.407 105.787 106.731 102.339 106.731C98.8917 106.731 96.2275 105.407 94.347 102.76C92.5291 100.058 91.2753 96.0327 90.5858 90.6837ZM20.0816 93.7591V102.117H25.3557V93.5157C30.9274 93.0018 35.1737 91.4601 38.0947 88.8907C41.0158 86.2942 42.4763 83.008 42.4763 79.0321C42.4763 76.0029 41.7325 73.5551 40.245 71.6889C38.7844 69.7956 36.7559 68.2269 34.1594 66.9828C31.59 65.7386 28.6554 64.5756 25.3557 63.4937V48.645C27.4113 48.8344 29.5345 49.186 31.7252 49.6999C33.916 50.2137 36.0257 50.8764 38.0542 51.6878L41.0158 44.1417C38.6898 43.114 36.242 42.3161 33.6726 41.7481C31.1302 41.1531 28.3579 40.815 25.3557 40.7338V34.2426H20.0816V40.8556C16.7819 41.0719 13.8744 41.7616 11.359 42.9246C8.87075 44.0876 6.92338 45.6699 5.51695 47.6713C4.13757 49.6458 3.44788 52.0124 3.44788 54.7711C3.44788 57.4488 4.01586 59.7477 5.15182 61.6681C6.28778 63.5613 8.07287 65.2247 10.5071 66.6582C12.9683 68.0917 16.1598 69.4711 20.0816 70.7964V86.0102C17.2147 85.902 14.253 85.4557 11.1968 84.6714C8.14048 83.887 5.57104 83.008 3.48845 82.0343V90.6758C5.544 91.5683 7.9782 92.2986 10.7911 92.8666C13.631 93.4075 16.7278 93.705 20.0816 93.7591ZM31.1573 83.6571C29.8861 84.6849 27.9522 85.3611 25.3557 85.6856V72.7437C27.1949 73.3388 28.669 73.9473 29.7779 74.5694C30.9138 75.1915 31.7388 75.8947 32.2526 76.6791C32.7936 77.4634 33.064 78.4236 33.064 79.5595C33.064 81.2364 32.4285 82.6023 31.1573 83.6571ZM20.0816 48.8073V61.5058C18.3777 60.9378 16.9848 60.3428 15.9029 59.7207C14.8481 59.0986 14.0772 58.3684 13.5904 57.5299C13.1036 56.6915 12.8601 55.6772 12.8601 54.4871C12.8601 53.4053 13.1306 52.4722 13.6715 51.6878C14.2125 50.9034 15.0239 50.2678 16.1057 49.781C17.1876 49.2942 18.5129 48.9696 20.0816 48.8073Z" fill="white"/>
<path d="M41.1091 152.082H38.2022V161.871H34.8438V152.082H32.9939V150.464L34.8438 149.561V148.658C34.8438 147.608 35.02 146.793 35.3723 146.213C35.732 145.626 36.2349 145.215 36.8808 144.98C37.5342 144.738 38.3049 144.617 39.1932 144.617C39.8465 144.617 40.4411 144.672 40.977 144.782C41.5128 144.885 41.9496 145.002 42.2873 145.134L41.4284 147.601C41.1715 147.52 40.8925 147.447 40.5916 147.381C40.2906 147.315 39.9456 147.282 39.5565 147.282C39.0867 147.282 38.7417 147.425 38.5215 147.711C38.3086 147.99 38.2022 148.35 38.2022 148.79V149.561H41.1091V152.082Z" fill="white"/>
<path d="M54.2343 155.694C54.2343 156.722 54.0948 157.632 53.8158 158.425C53.5442 159.218 53.1442 159.889 52.6156 160.44C52.0944 160.983 51.4631 161.394 50.7217 161.673C49.9877 161.952 49.1582 162.091 48.2332 162.091C47.367 162.091 46.5706 161.952 45.8438 161.673C45.1245 161.394 44.4968 160.983 43.961 160.44C43.4324 159.889 43.0213 159.218 42.7277 158.425C42.4414 157.632 42.2983 156.722 42.2983 155.694C42.2983 154.329 42.5405 153.172 43.025 152.225C43.5095 151.279 44.1995 150.559 45.0951 150.067C45.9907 149.575 47.0587 149.33 48.2993 149.33C49.4518 149.33 50.4721 149.575 51.3604 150.067C52.2559 150.559 52.957 151.279 53.4635 152.225C53.9773 153.172 54.2343 154.329 54.2343 155.694ZM45.7227 155.694C45.7227 156.501 45.8108 157.18 45.987 157.731C46.1632 158.282 46.4384 158.696 46.8128 158.975C47.1872 159.254 47.6753 159.394 48.2773 159.394C48.8719 159.394 49.3527 159.254 49.7197 158.975C50.0941 158.696 50.3657 158.282 50.5345 157.731C50.7107 157.18 50.7988 156.501 50.7988 155.694C50.7988 154.879 50.7107 154.204 50.5345 153.668C50.3657 153.125 50.0941 152.717 49.7197 152.446C49.3454 152.174 48.8572 152.038 48.2553 152.038C47.367 152.038 46.7211 152.343 46.3173 152.952C45.9209 153.561 45.7227 154.475 45.7227 155.694Z" fill="white"/>
<path d="M63.8799 149.33C64.0488 149.33 64.2433 149.341 64.4635 149.363C64.6911 149.377 64.8746 149.399 65.0141 149.429L64.7608 152.578C64.6507 152.541 64.4929 152.515 64.2873 152.501C64.0891 152.479 63.9166 152.468 63.7698 152.468C63.3367 152.468 62.9146 152.523 62.5036 152.633C62.0998 152.743 61.7365 152.923 61.4135 153.172C61.0905 153.415 60.8335 153.738 60.6427 154.141C60.4592 154.538 60.3674 155.026 60.3674 155.606V161.871H57.009V149.561H59.5526L60.0481 151.631H60.2133C60.4555 151.212 60.7565 150.831 61.1162 150.486C61.4832 150.133 61.8979 149.854 62.3604 149.649C62.8302 149.436 63.3367 149.33 63.8799 149.33Z" fill="white"/>
<path d="M71.3454 149.561H75.0231L77.3464 156.487C77.4198 156.707 77.4822 156.931 77.5336 157.158C77.585 157.386 77.629 157.621 77.6657 157.863C77.7025 158.105 77.7318 158.359 77.7538 158.623H77.8199C77.8639 158.227 77.9227 157.856 77.9961 157.511C78.0768 157.166 78.1759 156.824 78.2934 156.487L80.5727 149.561H84.1733L78.9651 163.446C78.6494 164.297 78.2383 165.006 77.7318 165.571C77.2253 166.143 76.6417 166.573 75.9811 166.859C75.3277 167.145 74.6084 167.289 73.8229 167.289C73.4412 167.289 73.1109 167.267 72.8319 167.223C72.553 167.186 72.3144 167.145 72.1162 167.101V164.437C72.2703 164.473 72.4649 164.506 72.6998 164.536C72.9347 164.565 73.1806 164.58 73.4375 164.58C73.9073 164.58 74.3111 164.481 74.6487 164.283C74.9864 164.084 75.269 163.816 75.4966 163.479C75.7241 163.148 75.904 162.785 76.0361 162.389L76.2343 161.783L71.3454 149.561Z" fill="white"/>
<path d="M97.1333 155.694C97.1333 156.722 96.9938 157.632 96.7149 158.425C96.4433 159.218 96.0432 159.889 95.5147 160.44C94.9935 160.983 94.3622 161.394 93.6208 161.673C92.8867 161.952 92.0572 162.091 91.1323 162.091C90.2661 162.091 89.4696 161.952 88.7429 161.673C88.0235 161.394 87.3959 160.983 86.86 160.44C86.3315 159.889 85.9204 159.218 85.6267 158.425C85.3405 157.632 85.1973 156.722 85.1973 155.694C85.1973 154.329 85.4396 153.172 85.924 152.225C86.4085 151.279 87.0986 150.559 87.9941 150.067C88.8897 149.575 89.9578 149.33 91.1983 149.33C92.3508 149.33 93.3712 149.575 94.2594 150.067C95.155 150.559 95.856 151.279 96.3625 152.225C96.8764 153.172 97.1333 154.329 97.1333 155.694ZM88.6217 155.694C88.6217 156.501 88.7098 157.18 88.886 157.731C89.0622 158.282 89.3375 158.696 89.7118 158.975C90.0862 159.254 90.5744 159.394 91.1763 159.394C91.7709 159.394 92.2517 159.254 92.6188 158.975C92.9931 158.696 93.2647 158.282 93.4336 157.731C93.6097 157.18 93.6978 156.501 93.6978 155.694C93.6978 154.879 93.6097 154.204 93.4336 153.668C93.2647 153.125 92.9931 152.717 92.6188 152.446C92.2444 152.174 91.7562 152.038 91.1543 152.038C90.2661 152.038 89.6201 152.343 89.2163 152.952C88.8199 153.561 88.6217 154.475 88.6217 155.694Z" fill="white"/>
<path d="M111.205 149.561V161.871H108.629L108.177 160.297H108.001C107.737 160.715 107.407 161.056 107.01 161.321C106.614 161.585 106.177 161.779 105.7 161.904C105.223 162.029 104.727 162.091 104.213 162.091C103.332 162.091 102.565 161.937 101.912 161.629C101.259 161.313 100.749 160.825 100.382 160.164C100.022 159.504 99.842 158.645 99.842 157.588V149.561H103.2V156.751C103.2 157.632 103.358 158.296 103.674 158.744C103.989 159.192 104.492 159.416 105.182 159.416C105.865 159.416 106.401 159.262 106.79 158.953C107.179 158.638 107.451 158.179 107.605 157.577C107.766 156.968 107.847 156.226 107.847 155.353V149.561H111.205Z" fill="white"/>
<path d="M121.6 149.33C121.769 149.33 121.963 149.341 122.183 149.363C122.411 149.377 122.594 149.399 122.734 149.429L122.481 152.578C122.371 152.541 122.213 152.515 122.007 152.501C121.809 152.479 121.637 152.468 121.49 152.468C121.057 152.468 120.635 152.523 120.223 152.633C119.82 152.743 119.456 152.923 119.133 153.172C118.81 153.415 118.553 153.738 118.363 154.141C118.179 154.538 118.087 155.026 118.087 155.606V161.871H114.729V149.561H117.272L117.768 151.631H117.933C118.175 151.212 118.476 150.831 118.836 150.486C119.203 150.133 119.618 149.854 120.08 149.649C120.55 149.436 121.057 149.33 121.6 149.33Z" fill="white"/>
<path d="M18.7126 175.97C20.1074 175.97 21.1607 176.33 21.8728 177.049C22.5922 177.761 22.9519 178.906 22.9519 180.484V188.511H19.5825V181.321C19.5825 180.44 19.432 179.776 19.131 179.328C18.8301 178.88 18.3639 178.657 17.7326 178.657C16.8444 178.657 16.2131 178.976 15.8387 179.615C15.4644 180.246 15.2772 181.152 15.2772 182.334V188.511H11.9188V181.321C11.9188 180.734 11.8527 180.242 11.7206 179.846C11.5885 179.449 11.3866 179.152 11.115 178.954C10.8434 178.756 10.4947 178.657 10.069 178.657C9.445 178.657 8.95317 178.814 8.59348 179.13C8.24112 179.438 7.98787 179.897 7.83372 180.506C7.6869 181.108 7.6135 181.846 7.6135 182.72V188.511H4.25513V176.201H6.8207L7.27215 177.776H7.45934C7.70892 177.35 8.0209 177.005 8.39528 176.741C8.777 176.476 9.19542 176.282 9.65054 176.157C10.1057 176.032 10.5681 175.97 11.0379 175.97C11.9408 175.97 12.7043 176.117 13.3282 176.41C13.9595 176.704 14.444 177.159 14.7817 177.776H15.079C15.446 177.144 15.9635 176.686 16.6315 176.399C17.3069 176.113 18.0006 175.97 18.7126 175.97Z" fill="white"/>
<path d="M37.5966 182.334C37.5966 183.362 37.4571 184.272 37.1781 185.065C36.9065 185.858 36.5065 186.529 35.9779 187.08C35.4568 187.623 34.8255 188.034 34.084 188.313C33.35 188.592 32.5205 188.732 31.5955 188.732C30.7293 188.732 29.9329 188.592 29.2062 188.313C28.4868 188.034 27.8591 187.623 27.3233 187.08C26.7947 186.529 26.3837 185.858 26.09 185.065C25.8037 184.272 25.6606 183.362 25.6606 182.334C25.6606 180.969 25.9028 179.813 26.3873 178.866C26.8718 177.919 27.5618 177.199 28.4574 176.708C29.353 176.216 30.421 175.97 31.6616 175.97C32.8141 175.97 33.8345 176.216 34.7227 176.708C35.6182 177.199 36.3193 177.919 36.8258 178.866C37.3396 179.813 37.5966 180.969 37.5966 182.334ZM29.085 182.334C29.085 183.142 29.1731 183.821 29.3493 184.371C29.5255 184.922 29.8007 185.337 30.1751 185.616C30.5495 185.894 31.0377 186.034 31.6396 186.034C32.2342 186.034 32.715 185.894 33.082 185.616C33.4564 185.337 33.728 184.922 33.8969 184.371C34.073 183.821 34.1611 183.142 34.1611 182.334C34.1611 181.519 34.073 180.844 33.8969 180.308C33.728 179.765 33.4564 179.358 33.082 179.086C32.7077 178.814 32.2195 178.679 31.6176 178.679C30.7293 178.679 30.0834 178.983 29.6796 179.592C29.2832 180.202 29.085 181.116 29.085 182.334Z" fill="white"/>
<path d="M47.3634 175.97C48.6773 175.97 49.7344 176.33 50.5345 177.049C51.3347 177.761 51.7347 178.906 51.7347 180.484V188.511H48.3764V181.321C48.3764 180.44 48.2149 179.776 47.8919 179.328C47.5762 178.88 47.0771 178.657 46.3944 178.657C45.3667 178.657 44.6657 179.005 44.2913 179.703C43.9169 180.4 43.7297 181.406 43.7297 182.72V188.511H40.3713V176.201H42.9369L43.3884 177.776H43.5756C43.8398 177.35 44.1665 177.005 44.5555 176.741C44.9519 176.476 45.3887 176.282 45.8659 176.157C46.3503 176.032 46.8495 175.97 47.3634 175.97Z" fill="white"/>
<path d="M60.3784 186.056C60.7455 186.056 61.1015 186.019 61.4465 185.946C61.7988 185.872 62.1475 185.781 62.4925 185.671V188.17C62.1328 188.332 61.6851 188.464 61.1492 188.567C60.6207 188.677 60.0407 188.732 59.4094 188.732C58.6754 188.732 58.0147 188.614 57.4275 188.379C56.8475 188.137 56.3888 187.722 56.0511 187.135C55.7207 186.54 55.5556 185.715 55.5556 184.658V178.723H53.948V177.302L55.7978 176.179L56.7668 173.58H58.9139V176.201H62.3604V178.723H58.9139V184.658C58.9139 185.127 59.0461 185.48 59.3103 185.715C59.582 185.942 59.938 186.056 60.3784 186.056Z" fill="white"/>
<path d="M68.3504 171.378V174.869C68.3504 175.478 68.3284 176.058 68.2843 176.608C68.2476 177.159 68.2183 177.548 68.1963 177.776H68.3724C68.6367 177.35 68.9487 177.005 69.3084 176.741C69.6754 176.476 70.0791 176.282 70.5196 176.157C70.96 176.032 71.4335 175.97 71.94 175.97C72.8282 175.97 73.6027 176.128 74.2634 176.443C74.924 176.752 75.4379 177.24 75.8049 177.908C76.1719 178.568 76.3554 179.427 76.3554 180.484V188.511H72.9971V181.321C72.9971 180.44 72.8356 179.776 72.5126 179.328C72.1896 178.88 71.6904 178.657 71.0151 178.657C70.3397 178.657 69.8075 178.814 69.4185 179.13C69.0294 179.438 68.7542 179.897 68.5927 180.506C68.4312 181.108 68.3504 181.846 68.3504 182.72V188.511H64.992V171.378H68.3504Z" fill="white"/>
<path d="M83.1713 188.511H79.8129V171.378H83.1713V188.511Z" fill="white"/>
<path d="M84.9441 176.201H88.6217L90.9451 183.127C91.0185 183.347 91.0809 183.571 91.1323 183.799C91.1836 184.026 91.2277 184.261 91.2644 184.503C91.3011 184.746 91.3305 184.999 91.3525 185.263H91.4185C91.4626 184.867 91.5213 184.496 91.5947 184.151C91.6755 183.806 91.7746 183.465 91.892 183.127L94.1713 176.201H97.7719L92.5637 190.086C92.2481 190.938 91.837 191.646 91.3305 192.211C90.824 192.784 90.2404 193.213 89.5797 193.499C88.9264 193.786 88.207 193.929 87.4215 193.929C87.0398 193.929 86.7095 193.907 86.4305 193.863C86.1516 193.826 85.913 193.786 85.7148 193.742V191.077C85.869 191.114 86.0635 191.147 86.2984 191.176C86.5333 191.205 86.7792 191.22 87.0362 191.22C87.506 191.22 87.9097 191.121 88.2474 190.923C88.585 190.725 88.8677 190.457 89.0952 190.119C89.3228 189.789 89.5026 189.425 89.6348 189.029L89.833 188.423L84.9441 176.201Z" fill="white"/>
<path d="M112.251 175.97C113.639 175.97 114.758 176.509 115.61 177.588C116.469 178.668 116.898 180.249 116.898 182.334C116.898 183.729 116.696 184.903 116.293 185.858C115.889 186.805 115.331 187.52 114.619 188.005C113.907 188.489 113.088 188.732 112.163 188.732C111.569 188.732 111.059 188.658 110.633 188.511C110.207 188.357 109.844 188.163 109.543 187.928C109.242 187.686 108.981 187.429 108.761 187.157H108.585C108.644 187.451 108.688 187.752 108.717 188.06C108.746 188.368 108.761 188.669 108.761 188.963V193.929H105.403V176.201H108.133L108.607 177.798H108.761C108.981 177.467 109.249 177.163 109.565 176.884C109.88 176.605 110.258 176.385 110.699 176.223C111.147 176.054 111.664 175.97 112.251 175.97ZM111.172 178.657C110.585 178.657 110.119 178.778 109.774 179.02C109.429 179.262 109.176 179.626 109.014 180.11C108.86 180.594 108.776 181.207 108.761 181.949V182.312C108.761 183.105 108.834 183.777 108.981 184.327C109.135 184.878 109.389 185.296 109.741 185.583C110.101 185.869 110.592 186.012 111.216 186.012C111.73 186.012 112.152 185.869 112.483 185.583C112.813 185.296 113.059 184.878 113.22 184.327C113.389 183.769 113.474 183.09 113.474 182.29C113.474 181.086 113.286 180.18 112.912 179.57C112.538 178.961 111.958 178.657 111.172 178.657Z" fill="white"/>
<path d="M123.031 188.511H119.673V171.378H123.031V188.511Z" fill="white"/>
<path d="M131.609 175.948C133.261 175.948 134.527 176.308 135.408 177.027C136.289 177.746 136.729 178.84 136.729 180.308V188.511H134.384L133.734 186.838H133.646C133.294 187.278 132.934 187.638 132.567 187.917C132.2 188.196 131.778 188.401 131.301 188.533C130.823 188.666 130.243 188.732 129.561 188.732C128.834 188.732 128.181 188.592 127.601 188.313C127.028 188.034 126.577 187.609 126.246 187.036C125.916 186.456 125.751 185.722 125.751 184.834C125.751 183.527 126.21 182.565 127.127 181.949C128.045 181.325 129.421 180.98 131.257 180.914L133.393 180.848V180.308C133.393 179.662 133.224 179.189 132.886 178.888C132.548 178.587 132.079 178.436 131.477 178.436C130.882 178.436 130.299 178.521 129.726 178.69C129.153 178.858 128.581 179.071 128.008 179.328L126.896 177.06C127.549 176.715 128.28 176.443 129.087 176.245C129.902 176.047 130.743 175.948 131.609 175.948ZM133.393 182.808L132.093 182.852C131.007 182.881 130.251 183.076 129.825 183.435C129.407 183.795 129.197 184.269 129.197 184.856C129.197 185.37 129.348 185.737 129.649 185.957C129.95 186.17 130.343 186.276 130.827 186.276C131.546 186.276 132.152 186.063 132.644 185.638C133.143 185.212 133.393 184.606 133.393 183.821V182.808Z" fill="white"/>
<path d="M147.189 175.97C148.503 175.97 149.561 176.33 150.361 177.049C151.161 177.761 151.561 178.906 151.561 180.484V188.511H148.203V181.321C148.203 180.44 148.041 179.776 147.718 179.328C147.402 178.88 146.903 178.657 146.221 178.657C145.193 178.657 144.492 179.005 144.117 179.703C143.743 180.4 143.556 181.406 143.556 182.72V188.511H140.197V176.201H142.763L143.215 177.776H143.402C143.666 177.35 143.993 177.005 144.382 176.741C144.778 176.476 145.215 176.282 145.692 176.157C146.176 176.032 146.676 175.97 147.189 175.97Z" fill="white"/>
</g>
<defs>
<filter id="filter0_d_1807_20813" x="0.447876" y="-1.60815" width="154.539" height="204.381" filterUnits="userSpaceOnUse" color-interpolation-filters="sRGB">
<feFlood flood-opacity="0" result="BackgroundImageFix"/>
<feColorMatrix in="SourceAlpha" type="matrix" values="0 0 0 0 0 0 0 0 0 0 0 0 0 0 0 0 0 0 127 0" result="hardAlpha"/>
<feOffset dy="1"/>
<feGaussianBlur stdDeviation="1.5"/>
<feComposite in2="hardAlpha" operator="out"/>
<feColorMatrix type="matrix" values="0 0 0 0 0.133333 0 0 0 0 0.133333 0 0 0 0 0.133333 0 0 0 0.4 0"/>
<feBlend mode="normal" in2="BackgroundImageFix" result="effect1_dropShadow_1807_20813"/>
<feBlend mode="normal" in="SourceGraphic" in2="effect1_dropShadow_1807_20813" result="shape"/>
</filter>
</defs>
</svg>
